<?xml version="1.0" standalone="no"?>
<!DOCTYPE svg PUBLIC "-//W3C//DTD SVG 1.1//EN" "http://www.w3.org/Graphics/SVG/1.1/DTD/svg11.dtd" >
<!--
2013-9-30: Created.
-->
<svg>
<metadata>
Created by iconfont
</metadata>
<defs>

  <font id="iconfont" horiz-adv-x="1024">
  <font-face
    font-family="iconfont"
    font-weight="500"
    font-stretch="normal"
    units-per-em="1024"
    ascent="896"
    descent="-128"
  />
    <missing-glyph />

    <glyph glyph-name="x" unicode="x" horiz-adv-x="1001"
d="M281 543q-27 -1 -53 -1h-83q-18 0 -36.5 -6t-32.5 -18.5t-23 -32t-9 -45.5v-76h912v41q0 16 -0.5 30t-0.5 18q0 13 -5 29t-17 29.5t-31.5 22.5t-49.5 9h-133v-97h-438v97zM955 310v-52q0 -23 0.5 -52t0.5 -58t-10.5 -47.5t-26 -30t-33 -16t-31.5 -4.5q-14 -1 -29.5 -0.5
t-29.5 0.5h-32l-45 128h-439l-44 -128h-29h-34q-20 0 -45 1q-25 0 -41 9.5t-25.5 23t-13.5 29.5t-4 30v167h911zM163 247q-12 0 -21 -8.5t-9 -21.5t9 -21.5t21 -8.5q13 0 22 8.5t9 21.5t-9 21.5t-22 8.5zM316 123q-8 -26 -14 -48q-5 -19 -10.5 -37t-7.5 -25t-3 -15t1 -14.5
t9.5 -10.5t21.5 -4h37h67h81h80h64h36q23 0 34 12t2 38q-5 13 -9.5 30.5t-9.5 34.5q-5 19 -11 39h-368zM336 498v228q0 11 2.5 23t10 21.5t20.5 15.5t34 6h188q31 0 51.5 -14.5t20.5 -52.5v-227h-327z" />


    <glyph glyph-name="supplier" unicode="&#58883;" d="M627.085 329.604q28.771 46.753 43.606 94.855t13.037 95.754q-0.899 40.46 0.449 75.974t4.045 66.084h213.986q26.074 0 42.707-14.386t16.633-40.46v-277.822h-334.465zM601.011 232.501q21.578-8.992 48.101-15.734t51.249-16.184 44.056-23.827 26.524-37.763q4.495-13.487 7.193-34.165t2.697-41.808-3.146-40.010-9.441-28.771q-4.495-6.293-25.175-13.487t-51.698-13.936-68.782-12.588-75.524-10.34-72.827-6.743-61.138-2.247-59.34 2.697-68.782 6.743-70.13 9.441-62.937 10.79-48.101 10.79-25.175 9.891q-8.992 7.193-13.936 44.056t3.146 94.406q5.394 32.367 27.423 49.451t50.799 26.973 59.79 17.982 54.396 23.377q18.881 11.689 28.771 22.028t14.386 21.128 4.495 22.478-0.899 26.074q-1.798 20.678-14.386 32.367t-27.872 23.377q-7.193 6.293-12.588 17.532t-9.891 22.928q-4.495 13.487-8.992 27.872-6.293 1.798-12.588 6.293-5.394 4.495-11.239 12.588t-10.34 23.377-3.146 27.423 4.944 21.128q3.596 9.891 10.79 18.881-0.899 34.165 3.596 67.433 3.596 28.771 13.037 60.689t27.423 57.992q17.083 25.175 37.763 40.909t42.258 24.726 43.606 12.138 41.808 3.146q26.074 0 49.9-5.843t44.505-15.734 36.414-22.477 25.625-25.175q23.377-28.771 34.165-62.936t15.285-64.735q4.495-35.964 4.495-71.029 6.293-3.596 9.891-10.79 3.596-6.293 5.843-16.184t0.449-24.276q-1.798-18.881-8.093-30.12t-12.588-17.532q-8.093-7.192-16.184-9.891-4.495-15.285-8.992-27.872-4.495-11.689-10.79-22.477t-13.487-17.083q-8.093-7.192-14.835-12.138t-12.138-10.79-8.992-13.037-5.394-17.982q-1.798-13.487-1.348-27.423t7.192-27.423 20.678-26.074 38.212-22.478zM482.33 41.892q0 5.394-2.697 20.229t-5.843 32.367-6.742 33.716-5.394 23.377q13.487 9.891 20.678 27.872 1.798 5.394-2.247 12.138t-11.239 13.037q-8.093 7.192-18.881 15.285h-44.955q-9.891-8.093-17.083-15.285-6.293-6.293-10.34-13.037t-2.247-11.239q4.495-8.992 8.093-15.285t8.093-11.689q-1.798-5.394-5.394-20.229t-8.093-32.367-7.642-33.266-3.146-23.827q0-4.495 7.642-13.037t17.982-17.083 20.229-14.835 14.386-6.293q5.394 0 14.386 5.843t17.982 13.936 15.734 16.184 6.742 13.487zM948.963 271.162q6.293 0 9.441-8.542t3.146-17.532q0-9.891-3.146-19.33t-9.441-9.441h-183.416q-12.588 19.779-27.423 33.266t-30.12 21.578h240.959z"  horiz-adv-x="1024" />


    <glyph glyph-name="delete" unicode="&#58884;"
           d="M203.605 556.88v-561.9c0-33.932 27.508-61.44 61.44-61.44h494.56c33.932 0 61.44 27.508 61.44 61.44v561.9h-617.44zM371.355 47.952h-55.296v399.18h55.296v-399.18zM482.971 47.952h-55.296v399.18h55.296v-399.18zM595.016 47.952h-55.296v399.18h55.296v-399.18zM706.632 47.952h-55.296v399.18h55.296v-399.18zM814.247 726.864h-98.828v51.587c0 33.932-27.508 61.44-61.44 61.44h-268.288c-33.932 0-61.44-27.508-61.44-61.44v-51.587h-115.664c-33.96 0-61.488-27.508-61.488-61.44v-50.176h728.636v50.176c-0.001 33.932-27.53 61.44-61.488 61.44zM659.611 726.483h-280.064v56.32h280.064v-56.32z"
           horiz-adv-x="1024"/>


    <glyph glyph-name="detail" unicode="&#59156;" d="M824.0600512 796.3503744L614.0460917333334 796.3503744c-17.218445866666666 39.3320704-56.37856746666665 66.86692053333334-102.04772906666668 66.86692053333334-45.6888096 0-84.828192-27.534850133333336-102.04554666666667-66.86692053333334L199.9377664 796.3503744c-36.9398656 0-66.86965973333334-29.92856853333333-66.86965973333334-66.86801173333333l0-757.8316448c0-36.9154304 29.92979413333333-66.86910293333334 66.86965973333334-66.86910293333334l624.1222848 0c36.9398656 0 66.8718432 29.952581333333335 66.8718432 66.86910293333334L890.9318943999999 729.4823626666666C890.9308021333334 766.4207146666666 860.9999167999999 796.3503744 824.0600512 796.3503744zM723.7544693333333 38.51763733333337c-3.939480533333333 0-7.573321599999999 0-11.1460352 0l0 0L311.3882912 38.51763733333337l0 0c-3.6611306666666668 0-7.2054624 0-11.144942933333335 0-18.481394133333332 0-33.43482986666667 14.976836266666666-33.43482986666667 33.435642666666666 0 18.456623999999998 14.953435733333333 33.43346026666667 33.43482986666667 33.43346026666667 3.939480533333333 0 7.570046933333332 0 11.144942933333335 0l0 0 401.22014293333336 0 0 0c3.5530645333333335 0 7.2065535999999994 0 11.1460352 0 18.481394133333332 0 33.43373866666666-14.976836266666666 33.43373866666666-33.43346026666667C757.1882079999999 53.49447466666675 742.2358634666667 38.51763733333337 723.7544693333333 38.51763733333337zM723.7544693333333 216.8316074666667c-3.939480533333333 0-7.221835733333333-0.01855573333333333-11.1460352-0.01855573333333333l0 0.01855573333333333L311.3882912 216.8316074666667l0 0c-3.505035733333333-1.2399744000000001-7.2054624 0-11.144942933333335 0-18.481394133333332 0-33.43482986666667 14.975745066666665-33.43482986666667 33.435642666666666 0 18.478454399999997 14.953435733333333 33.43346026666667 33.43482986666667 33.43346026666667 3.939480533333333 0 7.640999466666667 1.2399744000000001 11.144942933333335 0l0 0 401.22014293333336 0 0 0c4.562768 0 7.2065535999999994 0 11.1460352 0 18.481394133333332 0 33.43373866666666-14.955005866666665 33.43373866666666-33.43346026666667C757.1882079999999 231.80626133333328 742.2358634666667 216.8316074666667 723.7544693333333 216.8316074666667zM723.7544693333333 395.14557866666667c-3.939480533333333 0-7.370290133333333 0-11.1460352 0l0 0L311.3882912 395.14557866666667l0 0c-4.154520533333333 0-7.2054624 0-11.144942933333335 0-18.481394133333332 0-33.43482986666667 14.975745066666665-33.43482986666667 33.43346026666667s14.953435733333333 33.43346026666667 33.43482986666667 33.43346026666667c3.939480533333333 0 7.554764799999999 0 11.144942933333335 0l0 0 401.22014293333336 0 0 0.008731733333333333c3.5366912 0 7.2065535999999994-0.008731733333333333 11.1460352-0.008731733333333333 18.481394133333332 0 33.43373866666666-14.975745066666665 33.43373866666666-33.43346026666667S742.2358634666667 395.14557866666667 723.7544693333333 395.14557866666667zM723.7544693333333 573.4584565333333c-3.939480533333333 0-7.577688533333333 0-11.1460352 0l0 0L311.3882912 573.4584565333333l0 0c-4.130505599999999 0-7.2054624 0-11.144942933333335 0-18.481394133333332 0-33.43482986666667 14.975745066666665-33.43482986666667 33.43346026666667 0 18.479545599999998 14.953435733333333 33.43346026666667 33.43482986666667 33.43346026666667 3.939480533333333 0 7.963013333333333 0 11.144942933333335 0l0 0 401.22014293333336 0 0 0c3.7047936000000004 0 7.2065535999999994 0 11.1460352 0 18.481394133333332 0 33.43373866666666-14.953914666666666 33.43373866666666-33.43346026666667C757.1882079999999 588.4342026666667 742.2358634666667 573.4584565333333 723.7544693333333 573.4584565333333z"  horiz-adv-x="1024" />


    <glyph glyph-name="appoint" unicode="&#58887;"
           d="M416.313196-22.54420300000004l42.710754 145.465023c4.476965 15.381315 13.294794 29.214369 25.612331 40.22105l109.4866 108.476597c-8.751315 3.230578-17.467837 6.327102-26.151613 9.188266-5.452175 1.783623-40.11872 17.400299-18.444071 83.19991l-0.336668 0c56.409754 58.093093 99.55746 151.624303 99.55746 243.676835 0 141.562133-94.1718 215.742623-203.558116 215.742623-109.451808 0-203.018833-74.18049-203.018833-215.742623 0-92.421946 42.878576-186.325639 99.623975-244.282632 22.078855-58.024531-17.434068-79.56615-25.713638-82.594113C201.514061 239.37408800000003 67.087443 163.84692800000005 67.087443 89.29907100000003c0-20.128433 0-7.943926 0-27.936259 0-95.754854 175.017082-121.737622 347.778798-124.396171C412.375513-49.77335800000003 412.409283-35.973049999999944 416.313196-22.54420300000004zM813.534056 236.17728l-0.200568-0.201591-33.455973 33.522488 0.167822 0.202615-44.796252 44.762483L531.488355 112.48821299999997c-2.828418-2.255367-5.183046-5.116531-6.260587-8.818853L482.483244-41.965531000000055c-1.883907-6.393617-0.134053-13.227256 4.54348-17.904789 3.466961-3.466961 8.077979-5.317099 12.824073-5.317099 1.683339 0 3.365654 0.234337 5.047969 0.740874l145.70243 42.778292c3.466961 1.00898 6.15928 3.163039 8.31334 5.721305l204.298989 202.480574L813.534056 236.17728zM614.586958 68.36222599999996l2.659573-46.916543 11.780301-11.746532-78.353532-22.98755-17.064654 17.063631 22.988574 78.353532 9.827833-9.827833L614.586958 68.36222599999996zM753.760694 334.792275L881.724111 206.86058100000002 911.006018 234.29235000000006 783.041578 362.25679ZM944.660512 336.64343599999995l-61.356416 61.289901c-16.929578 16.929578-44.189432 17.098423-60.951187 0.336668l-18.814508-19.016099 122.612549-122.647341 18.813484 19.049868C961.693444 292.385443 961.556321 319.68008899999995 944.660512 336.64343599999995z"
           horiz-adv-x="1024"/>


    <glyph glyph-name="icon" unicode="&#58901;"
           d="M485.387387 286.895541 145.862577 286.895541c-25.042349 0-45.341674-20.298302-45.341674-45.341674L100.520903 102.825268c0-25.052582 20.298302-45.351907 45.341674-45.351907l339.52481 0c25.048489 0 45.349861 20.299325 45.349861 45.351907L530.737248 241.55489C530.736225 266.597239 510.435876 286.895541 485.387387 286.895541L485.387387 286.895541zM485.387387 286.895541M627.116319 339.308261c0 48.508807-15.390525 63.403029-42.594097 85.570911l-0.564865 0.457418c-30.575366 24.920576-55.824423 44.688805-79.449493 62.199621-2.623757 1.947352-7.021927 5.995551-7.021927 11.220552l0 53.29174 28.454052 0c5.79089 0 10.494005 4.692882 10.494005 10.492982l0 60.751642c0 0.390903-0.021489 0.788969-0.071631 1.169639-0.75827 51.486628-42.953278 93.182262-94.579075 93.182262L189.440072 717.645029c-52.163033 0-94.605681-42.441625-94.605681-94.605681 0-0.318248 0.010233-0.63752 0.039909-0.953721l0-59.543118c0-5.789866 4.695952-10.492982 10.491958-10.492982l28.417213 0 0-53.075823c0-5.236258-4.396123-9.274224-7.018857-11.222599-23.619954-17.498536-48.855708-37.265742-79.452563-62.185294l-0.564865-0.469698c-27.203572-22.166859-42.595121-37.062104-42.595121-85.570911 0-20.033265-0.010233-103.625102-0.031722-184.327122-0.010233-75.322499-0.020466-148.135852-0.020466-164.417677 0-45.6282 34.713616-92.824105 92.825129-92.824105l220.606397 0c0 0 195.931415-0.214894 216.810954-0.214894 58.097186 0 92.813872 47.194882 92.813872 92.824105 0 16.281825 0 89.093131-0.010233 164.417677C627.126552 235.683159 627.116319 319.277042 627.116319 339.308261L627.116319 339.308261zM534.343379-49.794711c-20.878516 0-216.757742 0.212848-216.778208 0.212848L96.926028-49.581863c-26.510794 0-40.362266 20.308535-40.362266 40.36022 0 16.281825 0.010233 89.083921 0.020466 164.407444 0.011256 80.70202 0.031722 164.30409 0.031722 184.337355 0 25.943882 2.201132 27.737738 23.269983 44.900629l0.560772 0.468674c29.961382 24.408923 54.605665 43.704384 77.54819 60.712757 17.953907 13.299911 28.241204 32.747845 28.241204 53.365418l0 53.075823 258.787998 0 0-53.29174c0-20.60734 10.289344-40.055275 28.237111-53.365418 22.961968-17.018605 47.607274-36.325323 77.559447-60.712757l0.563842-0.469698c21.066805-17.161868 23.269983-18.956747 23.269983-44.900629 0-20.031219 0.010233-103.625102 0.030699-184.338379 0-75.31329 0.010233-148.124596 0.010233-164.40642C574.694389-29.499479 560.84087-49.794711 534.343379-49.794711L534.343379-49.794711zM534.343379-49.794711M860.65833 343.047422c-0.35918 0.74599-1.003863 1.322112-1.793856 1.599428l-42.23594 14.567787c-0.788969 0.268106-1.64957 0.214894-2.408863-0.141216-0.747014-0.369414-1.322112-1.016143-1.588171-1.805112l-5.318122-15.410991c-0.563842-1.639337 0.308015-3.431146 1.947352-3.993964l42.22673-14.572904c0.337691-0.112564 0.686638-0.171915 1.02433-0.171915 1.311879 0 2.53166 0.818645 2.980891 2.119267l5.319146 15.400758C861.077885 341.428551 861.02672 342.299385 860.65833 343.047422L860.65833 343.047422zM860.65833 343.047422M841.915453 295.575224l-42.225707 14.570857c-0.788969 0.26606-1.64957 0.212848-2.39863-0.152473-0.75827-0.360204-1.332345-1.004887-1.599428-1.805112l-5.317099-15.400758c-0.574075-1.64957 0.308015-3.430122 1.947352-4.007267l42.225707-14.560624c0.337691-0.122797 0.676405-0.173962 1.025353-0.173962 0.481977 0 0.942465 0.102331 1.38351 0.308015 0.748037 0.36839 1.322112 1.02433 1.599428 1.803066l5.317099 15.412015C844.43688 293.207293 843.566046 295.001149 841.915453 295.575224L841.915453 295.575224zM841.915453 295.575224M825.777915 248.778408l-42.23594 14.572904c-1.64957 0.561795-3.432169-0.310062-3.994987-1.959631l-5.319146-15.400758c-0.277316-0.786922-0.226151-1.64957 0.144286-2.39863 0.35918-0.757247 1.014096-1.331321 1.804089-1.598404l42.225707-14.58109c0.348947-0.11154 0.686638-0.173962 1.025353-0.173962 1.310855 0 2.53166 0.830925 2.981914 2.130524l5.317099 15.401782c0.267083 0.799202 0.215918 1.659803-0.143263 2.408863C827.211567 247.928041 826.56586 248.511325 825.777915 248.778408L825.777915 248.778408zM825.777915 248.778408M808.34794 198.274154l-42.236963 14.57188c-0.778736 0.275269-1.647523 0.226151-2.396583-0.146333-0.748037-0.35918-1.332345-1.014096-1.599428-1.792832l-5.317099-15.421224c-0.563842-1.639337 0.306992-3.432169 1.955538-3.996011l42.227754-14.570857c0.337691-0.11154 0.686638-0.173962 1.025353-0.173962 1.299599 0 2.529613 0.819668 2.979868 2.131547l5.307889 15.400758c0.277316 0.788969 0.226151 1.64957-0.14224 2.408863C809.783639 197.435043 809.137932 198.007071 808.34794 198.274154L808.34794 198.274154zM808.34794 198.274154M1006.353596 520.407875l-63.475683 21.905916 24.233937 70.211085 19.877723-6.854105c1.834788-0.63752 3.749394-0.964978 5.686513-0.964978 7.429203 0 14.048971 4.723581 16.477276 11.753695 1.51654 4.403287 1.240247 9.128915-0.809435 13.320377-2.029216 4.181229-5.584182 7.325849-9.980305 8.842389l-106.963127 36.918841c-1.845021 0.63445-3.761674 0.953721-5.688559 0.953721-7.439436 0-14.058181-4.723581-16.485463-11.753695-1.51654-4.3951-1.230014-9.127891 0.809435-13.30912 2.037403-4.191462 5.584182-7.337105 9.989515-8.852622l16.610306-5.729491-24.233937-70.219271-63.487963 21.905916c-11.682064 4.037966-24.02723-0.920976-27.522844-11.034311-3.492544-10.102079 3.187599-21.621437 14.867616-25.648147l2.552126-0.881067-130.430608-377.966331c-1.638313-4.733814-1.320065-9.92914 0.871857-14.428617 2.193968-4.507664 6.085602-7.951089 10.821463-9.589402l63.783699-22.010293-85.998653-249.188362c-0.481977-1.393743 0.071631-2.940982 1.332345-3.709485 0.512676-0.318248 1.074472-0.471744 1.648546-0.471744 0.829901 0 1.64957 0.327458 2.264577 0.966001l40.23947 41.671075c0.318248 0.327458 0.563842 0.727571 0.717338 1.158383l68.855204 199.541639 63.786769-22.00927c2.039449-0.697895 4.117784-1.035586 6.167466-1.035586 7.828292 0 15.155165 4.919033 17.84953 12.736069L991.147266 484.594205l2.552126-0.881067c11.680017-4.02671 24.038486 0.921999 27.532053 11.024078C1024.716826 504.862831 1018.045893 516.369909 1006.353596 520.407875L1006.353596 520.407875zM797.169343 430.420375l36.917818 106.995873 25.227568-8.708336-36.917818-106.98564L797.169343 430.420375zM831.177901 136.813361l-120.931257 41.724287 77.135798 223.528959 120.931257-41.733497L831.177901 136.813361zM918.099576 388.686878l-25.237801 8.709359 36.930097 106.994849 25.225521-8.708336L918.099576 388.686878zM918.099576 388.686878"
           horiz-adv-x="1024"/>


    <glyph glyph-name="stop" unicode="&#59108;" d="M953.333 392.667c0 248.52-201.419 450-450 450s-450-201.48-450-450c0-248.581 201.419-450 450-450 248.581 0 450 201.419 450 450zM113.333 392.667c0 215.040 174.96 390 390 390s390-174.96 390-390-174.96-390-390-390c-215.040 0-390 174.96-390 390zM653.333 272.667v240.001c0 16.56-13.44 30-30 30h-240.001c-16.56 0-30-13.44-30-30v-240.001c0-16.56 13.44-30 30-30h240.001c16.56 0 30 13.44 30 30z"  horiz-adv-x="1024" />


    <glyph glyph-name="sale" unicode="&#59303;"
           d="M498.776 564.096c-4.224-3.456-6.624-7.008-7.248-10.68-0.576-3.696-0.624-7.776-0.144-12.264l-24.096-2.832c-38.976-3.768-65.496-15.384-79.584-34.8s-22.272-38.928000000000004-24.503999999999998-58.512c-1.8719999999999999-14.784-0.888-28.272000000000002 2.952-40.488s10.272-22.344 19.224-30.432c9-8.088000000000001 19.92-14.784 32.808-20.112 12.912-5.328 24.528-9.24 34.872-11.736 10.344-2.496 23.112-4.92 38.328-7.343999999999999l0-139.488-27.672 7.992000000000001c-6 1.392-14.28 5.208-24.864 11.472000000000001-10.584 6.288-20.183999999999997 13.512-28.704 21.648-8.52 8.184-14.52 17.016000000000002-17.952 26.568-3.432 9.504000000000001-7.4639999999999995 16.608-12.168000000000001 21.264s-10.392 4.896000000000001-17.04 0.768c-6.672-4.128-10.008000000000001-11.184000000000001-10.008000000000001-21.144s3.216-20.328 9.6-31.080000000000002c6.408-10.728 13.848-20.448 22.296-29.112000000000002 8.496-8.688 19.2-16.68 32.208000000000006-24 12.984-7.296 25.032-12.6 36.144000000000005-15.984000000000002 11.112-3.336 23.808-6.5520000000000005 38.184-9.648l0-14.952c0-3.96 1.848-8.040000000000001 5.496-12.239999999999998 3.696-4.224 9.36-5.952 16.968-5.159999999999999 7.632000000000001 0.744 12.624 3 15 6.696000000000001 2.352 3.6719999999999997 3.552 7.752000000000001 3.552 12.239999999999998L532.4240000000001 152.88l37.416000000000004 6.456c13.512 1.7040000000000002 28.032 7.5840000000000005 43.584 17.664 15.527999999999999 10.032 27.336 21.599999999999998 35.376 34.656s12.672 27.072 13.968 42.024 0.12 28.512-3.456 40.727999999999994c-3.5999999999999996 12.216000000000001-8.639999999999999 22.584-15.144 31.200000000000003s-14.616000000000001 15.816-24.360000000000003 21.648-20.928 10.319999999999999-33.576 13.416-30.576000000000004 6.096-53.808 9.024000000000001l0 131.496 18.695999999999998-2.832c8.016-1.032 16.919999999999998-5.279999999999999 26.64-12.767999999999999 9.744-7.4639999999999995 17.352-16.200000000000003 22.8-26.16l11.808-26.808c3.432-7.223999999999999 8.16-12.624 14.232-16.247999999999998s12-3.648 17.808-0.12c5.808 3.504 9.264000000000001 8.832 10.392 15.984000000000002 1.1280000000000001 7.128-1.4640000000000002 16.656000000000002-7.68 28.584-6.239999999999999 11.952-12.648 22.608-19.224 31.968000000000004-6.6 9.384-15.696 17.928-27.336 25.656s-22.464000000000002 13.056-32.52 15.984000000000002-21.984 5.664-35.616 8.256l0 6.696000000000001c0.504 9.456-3.9360000000000004 15.120000000000001-13.32 17.016000000000002S502.976 567.528 498.776 564.096zM491.40799999999996 373.82399999999996l-19.992 3.864c-14.687999999999999 2.736-27.336 6.648-37.92 11.736-10.608 5.064-18.384 11.88-23.352 20.496000000000002-5.808 9.623999999999999-7.776 20.328-5.904 32.112 1.8719999999999999 11.76 5.76 21.768 11.664 30.023999999999997s13.344 14.52 22.32 18.816c8.952 4.295999999999999 16.992 7.128 24.096 8.496 7.08 1.392 16.776 2.424 29.088 3.096L491.40799999999996 373.82399999999996zM532.448 330.76800000000003l27.936-2.568c19.32-1.7040000000000002 32.952-5.976 41.016-12.767999999999999 8.016-6.768 13.416-15.168000000000001 16.128-25.128 2.736-9.96 3.696-20.256 2.832-30.791999999999998-0.864-10.584-3.888-20.352-9.12-29.28-5.208-8.927999999999999-12.696000000000002-16.416-22.535999999999998-22.44s-19.176-9.84-28.080000000000002-11.495999999999999c-8.879999999999999-1.608-18.288-2.784-28.176000000000002-3.48L532.448 330.76800000000003zM932.624 426.432L521.504 774.624c-6.672 5.664-16.44 5.688-23.16 0.096L80.60000000000002 426.504c-7.056-5.88-8.544-16.104000000000003-3.48-23.76l80.592-121.704c2.7119999999999997-4.128 7.032-6.936 11.88-7.800000000000001 4.992-0.816 9.888 0.336 13.848 3.2880000000000003l35.256 26.184 67.992-308.352c1.824-8.256 9.144-14.112 17.568-14.112l412.776 0c8.52 0 15.887999999999998 6 17.616000000000003 14.328000000000001l64.032 308.016 39.408-22.344c8.376-4.776 18.96-2.064 24.096 6.024l73.992 116.75999999999999C941.0239999999999 410.64 939.512 420.624 932.624 426.432zM840.992 320.03999999999996l-45.96 26.064c-5.016 2.8560000000000003-11.064 3.1199999999999997-16.32 0.744-5.232-2.3760000000000003-9.024000000000001-7.104-10.200000000000001-12.719999999999999l-66.09599999999999-317.88L318.752 16.247999999999934 247.88 337.63199999999995c-1.3199999999999998 5.976-5.544 10.847999999999999-11.28 12.984-5.736000000000001 2.136-12.144 1.248-17.04-2.424l-42.312000000000005-31.44-61.224 92.424L509.768 737.4000000000001l387.624-328.32000000000005L840.992 320.03999999999996z"
           horiz-adv-x="1024"/>


    <glyph glyph-name="equipment" unicode="&#58929;"
           d="M78.590331875-33.52907531250003L78.590331875 650.968755 278.6655603125 832.8671878125l502.91886093749997 0 198.680334375-181.9204978125L980.2647565625-33.52907531250003 78.590331875-33.52907531250003zM925.2844334375 21.451247812500014L925.2844334375 283.97053968750004 691.2021809375001 283.97053968750004c-21.621820312500002-70.93910343750001-89.28666375-123.5411990625-160.47040125-123.5411990625-0.4547315625 0-0.9248128125 0.0028781249999999996-1.379544375 0.0047971875-37.08557625 0.3415284375-74.2076071875 14.287592812500002-104.52305343750001 39.2738521875-27.1937221875 22.413284062499997-47.2853803125 52.105153125-57.165721875 84.2635096875L133.5696959375 283.9714996875 133.5696959375 21.451247812500014 925.2844334375 21.451247812500014zM426.09840125 283.97053968750004c18.6718209375-39.528079687500004 60.11572125-67.0316728125 103.32578531249999-67.0316728125 43.2148603125 0 84.6578015625 27.503592187499997 103.332500625 67.0316728125L426.09840125 283.97053968750004zM925.2844334375 338.96909062500004L925.2844334375 601.4826271875l-233.9709675 0.3664715625c-21.4894303125-71.14248562499999-89.1830540625-123.88848375-160.5413925-123.88848375-0.4681621875 0-0.9507150000000001 0.0028781249999999996-1.42175625 0.0067153125-37.1498521875 0.3252196875-74.327525625 14.3106178125-104.676549375 39.379380937499995-27.2244215625 22.486194375-47.2997709375 52.262486249999995-57.120631875 84.5023875l-233.9834390625-0.3664715625 0-262.5125765625L925.2844334375 338.96909062500004 925.2844334375 338.96909062500004zM415.79978375 656.4610312499999l0-9.85060125c0-59.740616249999995 53.095201875-112.14412593750001 113.62344375-112.14412593750001 60.533039062499995 0 113.6301590625 52.403510625 113.6301590625 112.14412593750001l0 9.85060125 253.52826750000003 0L758.4525846875 777.868636875 301.68899093749997 777.868636875 162.57850812499998 656.4610312499999 415.79978375 656.4610312499999z"
           horiz-adv-x="1024"/>


    <glyph glyph-name="search" unicode="&#58996;" d="M961.761 18.947l-188.007 189.471c47.554 65.057 75.627 145.255 75.627 232.011 0 217.363-176.208 393.571-393.571 393.571s-393.571-176.208-393.571-393.571 176.208-393.571 393.571-393.571c86.887 0 167.196 28.159 232.304 75.843l188.7-188.7 84.946 84.947zM455.626 160.119c-154.892 0-280.458 125.565-280.458 280.458s125.565 280.458 280.458 280.458 280.458-125.565 280.458-280.458-125.565-280.458-280.458-280.458z"  horiz-adv-x="1024" />


    <glyph glyph-name="fold" unicode="&#59038;"
           d="M914.7115479990678 461.0592084942274L914.7115479990678 683.7120640250312l-131.41113588698073 0-56.520919017413 0-74.89021825040855 0-56.520919017413 0-76.53921559960756 0L518.8291402272448 789.9982391344881 249.31620308629596 789.9982391344881l0.01413014414222222 1.8764950173181891-2.3046399037524274-1.8764950173181891-1.934428194049053 0-68.96682537179127-56.520919017413 1.4709572568388476 0-8.490855120424033-6.912508491936131 0 1.1586787238663374-56.520919017413-46.3203054090535 0-0.850639372220576-0.7616193260404938-0.6203165037774486 0.7616193260404938 0 0-218.87443316988836-44.27424866202865 0 0-484.932528665031 887.3784277448797 0L955.6878005818576 461.0592084942274 914.7115479990678 461.0592084942274zM783.3004107312461 627.191145007618l74.89021825040855 0 0-163.30589111485628-74.89021825040855 0L783.3004107312461 627.191145007618zM651.8892748442654 627.191145007618l74.89021825040855 0 0-163.30589111485628-74.89021825040855 0L651.8892748442654 627.191145007618zM520.4781375764438 627.191145007618l74.89021825040855 0 0-163.30589111485628-74.89021825040855 0L520.4781375764438 627.191145007618zM169.1059544974222 626.2543107895414l107.62572050684837 0.05652057656888888 0.6570551547153909 107.16648875096493 184.91949105084575 0 0-272.41811162284773-293.2022667124095 0L169.1059544974222 626.2543107895414zM643.4111358869807 149.3548180892128l-262.8222731548023 0 0 138.47625076415736 262.8222731548023 0L643.4111358869807 149.3548180892128z"
           horiz-adv-x="1024"/>


    <glyph glyph-name="edit" unicode="&#58897;" d="M640.572 769.714h-531.708c-25.908 0-46.864-20.958-46.864-46.864v-737.872c0-28.158 22.822-50.978 51.042-50.978h736.2c26.808 0 48.472 21.664 48.472 48.472v530.1h-64.286v-465.108c0-27.192-21.986-49.178-49.178-49.178h-614.442c-24.042 0-43.522 19.478-43.522 43.522v616.114c0 26.228 21.278 47.508 47.508 47.508h466.778v64.286zM319.142 191.142l32.142 96.428 353.572 353.572 64.286-64.286-353.572-353.572zM769.142 705.428c0-35.504 28.781-64.286 64.286-64.286s64.286 28.781 64.286 64.286c0 35.504-28.781 64.286-64.286 64.286-35.504 0-64.286-28.781-64.286-64.286z"  horiz-adv-x="1024" />


    <glyph glyph-name="filter" unicode="&#58893;"
           d="M608.256-64c-17.696 0-32 14.304-32 32v480c0 7.936 2.944 15.584 8.256 21.44l208.8 234.496h-562.88l209.216-234.656c5.216-5.856 8.096-13.44 8.096-21.312v-288.768l50.848-41.152c13.76-11.136 15.872-31.264 4.736-44.992s-31.264-15.84-44.992-4.736l-62.72 50.752c-7.52 6.048-11.872 15.232-11.872 24.864v291.872l-248.608 278.848c-8.384 9.408-10.464 22.88-5.312 34.4 5.152 11.488 16.608 18.912 29.216 18.912h706.336c12.672 0 24.128-7.456 29.248-19.008s2.976-25.056-5.504-34.432l-248.864-278.816v-467.712c0-17.696-14.304-32-32-32z"
           horiz-adv-x="1024"/>


    <glyph glyph-name="wodepeifeizhanzhongcetushenqingdingdan" unicode="&#58998;"
           d="M512 896C229.266713 896 0.051164 666.784451 0.051164 384.051164s229.215549-511.948836 511.948836-511.948836 511.948836 229.215549 511.948836 511.948836S794.733287 896 512 896zM446.7145 669.854302 572.066753 669.854302c15.349256 0 27.730988-13.712002 27.730988-30.596183 0-16.986509-12.279404-30.698511-26.912361-30.698511L446.7145 608.559608c-15.349256 0-27.62866 13.712002-27.62866 30.698511C418.983512 656.244629 431.262916 669.854302 446.7145 669.854302zM777.439792 167.72899c0-50.038573-23.944839-69.583292-73.164785-69.583292L313.687619 98.145698c-49.219946 0-67.127411 24.968122-67.127411 69.583292L246.560208 579.191366c0 41.545318 12.484061 70.29959 63.238933 70.29959l39.498751 0 23.740182 0c-0.61397-3.376836-1.023284-6.753672-1.023284-10.130509 0-25.786749 18.726092-51.061857 42.05696-51.061857L605.835115 588.298591c22.205256 0 40.931348 25.377436 40.931348 51.061857 0 3.479165-0.409313 6.856001-1.023284 10.130509l26.298391 0L708.163486 649.490956c46.968722 0 69.378635-28.754272 69.276307-70.29959L777.439792 167.72899 777.439792 167.72899zM677.567303 437.568902 346.432697 437.568902c-15.963226 0-28.8566 12.893375-28.8566 28.8566s12.893375 28.8566 28.8566 28.8566l331.134606 0c15.963226 0 28.8566-12.893375 28.8566-28.8566S693.530529 437.568902 677.567303 437.568902zM677.567303 314.979514 346.432697 314.979514c-15.963226 0-28.8566 12.893375-28.8566 28.8566 0 15.963226 12.893375 28.8566 28.8566 28.8566l331.134606 0c15.963226 0 28.8566-12.893375 28.8566-28.8566C706.423903 327.975217 693.530529 314.979514 677.567303 314.979514zM677.567303 192.492455 346.432697 192.492455c-15.963226 0-28.8566 12.893375-28.8566 28.8566 0 15.963226 12.893375 28.8566 28.8566 28.8566l331.134606 0c15.963226 0 28.8566-12.893375 28.8566-28.8566C706.423903 205.38583 693.530529 192.492455 677.567303 192.492455z"
           horiz-adv-x="1024"/>


    <glyph glyph-name="more" unicode="&#58898;"
           d="M128 486.4c-42.182 0-76.8 34.618-76.8 76.8v204.8c0 42.182 34.618 76.8 76.8 76.8h204.8c42.182 0 76.8-34.618 76.8-76.8v-204.8c0-42.182-34.618-76.8-76.8-76.8h-204.8zM460.8 563.2v204.8c0 70.458-57.542 128-128 128h-204.8c-70.458 0-128-57.542-128-128v-204.8c0-70.458 57.542-128 128-128h204.8c70.458 0 128 57.542 128 128zM896 486.4h-204.8c-42.182 0-76.8 34.618-76.8 76.8v204.8c0 42.182 34.618 76.8 76.8 76.8h204.8c42.182 0 76.8-34.618 76.8-76.8v-204.8c0-42.182-34.618-76.8-76.8-76.8zM1024 768c0 70.458-57.542 128-128 128h-204.8c-70.458 0-128-57.542-128-128v-204.8c0-70.458 57.542-128 128-128h204.8c70.458 0 128 57.542 128 128v204.8zM332.8-76.8h-204.8c-42.182 0-76.8 34.618-76.8 76.8v204.8c0 42.182 34.618 76.8 76.8 76.8h204.8c42.182 0 76.8-34.618 76.8-76.8v-204.8c0-42.182-34.618-76.8-76.8-76.8zM460.8 204.8c0 70.458-57.542 128-128 128h-204.8c-70.458 0-128-57.542-128-128v-204.8c0-70.458 57.542-128 128-128h204.8c70.458 0 128 57.542 128 128v204.8zM691.2-76.8c-42.182 0-76.8 34.618-76.8 76.8v204.8c0 42.182 34.618 76.8 76.8 76.8h204.8c42.182 0 76.8-34.618 76.8-76.8v-204.8c0-42.182-34.618-76.8-76.8-76.8h-204.8zM1024 0v204.8c0 70.458-57.542 128-128 128h-204.8c-70.458 0-128-57.542-128-128v-204.8c0-70.458 57.542-128 128-128h204.8c70.458 0 128 57.542 128 128z"
           horiz-adv-x="1024"/>


    <glyph glyph-name="platform" unicode="&#59008;" d="M297.334 589.35c28.651 28.652 75.061 28.652 103.683 0.027l6.84-6.868 88.211 88.267-6.869 6.867c-50.291 50.347-120.882 67.969-185.359 52.806-9.239 56.881-58.525 100.273-117.946 100.299-66.013 0-119.518-53.611-119.518-119.678 0-57.023 39.794-104.713 93.069-116.777-20.186-67.576-3.709-143.837 49.598-197.198l198.814-198.873 88.126 88.323-198.787 198.846c-28.509 28.566-28.565 75.14 0.17 103.931l-0.031 0.029zM957.646 711.095c0 66.123-53.504 119.683-119.541 119.683-60.427 0-110.355-44.901-118.396-103.181-67.27 19.77-142.911 3.047-196.024-50.094l-198.817-198.869 88.211-88.296 198.758 198.817c28.734 28.761 75.033 28.707 103.572 0.168 28.621-28.652 28.621-75.145-0.030-103.795l-6.813-6.838 88.156-88.352 6.869 6.924c52.748 52.861 69.526 128.060 50.26 195.158 58.586 7.708 103.794 57.917 103.794 118.676v0zM856.033 175.38c15.803 64.982-1.732 136.412-52.44 187.173l-198.511 198.958-88.212-88.242 198.542-198.952c28.73-28.791 28.674-75.143 0.166-103.708-28.625-28.625-75.060-28.625-103.708 0.026l-6.788 6.788-88.126-88.352 6.758-6.729c53.669-53.753 130.572-70.201 198.396-49.284 11.032-54.705 59.286-95.807 117.169-95.807 65.987 0 119.515 53.532 119.515 119.655 0 60.397-44.648 110.351-102.733 118.506l-0.027-0.031zM599.555 369.452l-198.566-198.955c-28.539-28.594-75.088-28.648-103.793 0.112-28.651 28.705-28.651 75.143-0.026 103.817l6.811 6.788-88.21 88.239-6.758-6.727c-51.267-51.327-68.552-123.76-51.885-189.352-52.687-12.454-91.922-59.897-91.922-116.499-0.029-66.093 53.528-119.651 119.541-119.651 56.797 0.026 104.354 39.621 116.525 92.817 65.172-16.195 136.994 1.145 187.898 52.134l198.51 198.926-88.126 88.352zM859.954 173.978l-12.004-13.903 4.984 20.566c16.068 66.071-3.031 134.237-51.090 182.348l-194.895 195.333-80.977-81.004 194.931-195.336c30.569-30.634 30.644-80.399 0.166-110.937-14.811-14.812-34.504-22.966-55.452-22.966-20.961 0-40.669 8.165-55.495 22.991l-3.164 3.164-80.892-81.099 3.129-3.116c36.43-36.487 84.866-56.576 136.394-56.576 19.336 0 38.474 2.879 56.884 8.556l5.405 1.667 1.118-5.546c10.715-53.136 57.881-91.702 112.152-91.702 63.081 0 114.399 51.381 114.399 114.539-0.001 55.87-40.905 103.97-95.593 113.020z"  horiz-adv-x="1024" />


    <glyph glyph-name="permission" unicode="&#58912;" d="M347.119-56.679c-148.584 7.826-250.487 40.34-272.622 86.986-4.865 10.253-7.242 26.516-7.242 49.553 0 30.243 1.454 36.569 12.314 53.582 29.736 46.582 110.504 100.514 207.427 138.508 20.43 8.009 40.563 19.308 47.729 26.788 10.706 11.175 12.394 16.347 12.394 37.971 0 23.796-1.13 26.41-22.86 52.868-28.218 34.358-58.599 94.613-70.914 140.647-12.355 46.184-13.393 119.006-2.225 156.203 23.621 78.676 82.306 129.266 163.998 141.375 40.955 6.071 86.881-1.858 128-22.098 45.943-22.615 84.311-73.321 97.199-128.456 6.63-28.363 6.51-97.457-0.224-129.669-11.169-53.427-45.141-123.618-76.779-158.636-17.203-19.042-23.115-33.764-23.094-57.51 0.022-24.27 12.67-44.147 32.19-50.59 8.537-2.818 15.522-5.631 15.522-6.251 0-0.621-25.507-26.341-56.683-57.155-31.175-30.815-60.277-61.884-64.671-69.043-9.995-16.287-52.322-157.331-55.992-186.576l-2.722-21.695-60.746 3.199zM489.003-56.841c-7.346 7.346-7.546 6.274 16.851 90.251l22.060 75.932 209.712 205.538 125.831-125.845-211.69-206.578-75.275-22.253c-41.401-12.239-76.852-22.253-78.779-22.253-1.927 0-5.846 2.343-8.71 5.207zM596.445-0.821c19.182 5.257 34.876 10.965 34.876 12.685 0 1.72-2.929 5.558-6.508 8.529-4.289 3.559-6.508 13.253-6.508 28.423v23.021l-24.949 3.017c-13.722 1.659-27.437 5.007-30.478 7.439-3.041 2.432-6.263 3.656-7.161 2.719-0.898-0.937-6.881-18.966-13.296-40.066l-11.663-38.363 9.938-10.579c5.466-5.818 12.398-9.634 15.405-8.481 3.007 1.154 21.162 6.399 40.344 11.656zM821.094 275.365c-32.782 32.844-59.603 61.765-59.603 64.269 0 2.503 5.558 8.661 12.351 13.683l12.351 9.131 124.994-125.559-12.174-10.62c-6.696-5.841-13.556-10.62-15.245-10.62-1.689 0-29.892 26.873-62.673 59.717zM868.692 323.127l-59.851 60.064 10.871 11.73c28.213 30.442 48.751 24.875 99.479-26.965 34.963-35.729 37.555-39.619 37.555-56.356 0-14.256-2.919-21.142-14.102-33.258l-14.102-15.28-59.851 60.064z"  horiz-adv-x="1024" />


    <glyph glyph-name="store1" unicode="&#58917;"
           d="M948.87 454.295c0-62.132-48.892-112.489-109.216-112.489-60.326 0-109.217 50.357-109.217 112.489v0 0 0c0-62.132-48.906-112.489-109.216-112.489-60.326 0-109.219 50.357-109.219 112.489v0 0 0 0c0-62.132-48.908-112.489-109.22-112.489-60.325 0-109.217 50.357-109.217 112.489v0 0 0 0c0-62.132-48.892-112.489-109.216-112.489s-109.217 50.357-109.217 112.489v0 0 0l67.207 201.539h739.325l67.21-201.539zM807.727 723.786h-591.453c-22.269 0-40.33 15.201-40.33 33.972 0 18.772 18.062 33.989 40.33 33.989h591.453c22.272 0 40.329-15.218 40.329-33.989 0-18.772-18.057-33.972-40.329-33.972zM243.15 316.039v-203.872h537.685v203.871c8.005-17.634 23.964-33.052 33.618-33.987 19.498-1.822 24.944 15.772 33.603 33.987v-271.837c0-37.103-26.748-67.947-67.221-67.947h-537.685c-31.015 0-67.206 26.608-67.206 67.947v271.839c4.662-17.603 9.571-33.987 33.603-33.987 19.838-0.001 31.274 22.512 33.604 33.987z"
           horiz-adv-x="1024"/>


    <glyph glyph-name="download" unicode="&#58919;" d="M351.9999996875 90.03171468749997L385.4618534375 123.49356843750002 488.33781125 20.617610624999998 488.33781125 440.40451875 535.6644696875001 440.40451875 535.6644696875001 20.617610624999998 638.5392865625 123.49356843750002 672.0057012499999 90.03171468749997 512.0034209375-69.97056656250004ZM655.1453515625 192.90311062499995l0 47.331219375 107.067669375 0c88.129708125 0 159.82781624999998 71.6958271875 159.82781624999998 159.823254375 0 83.7669525-65.50176375000001 153.704450625-149.1227596875 159.218900625l-47.0780746875 3.1472043750000003-5.7379471875000005 46.87054125c-12.841963125 104.96497125-102.3046715625 184.11944531249998-208.09749468750002 184.11944531249998-105.79624406250001 0-195.2612334375-79.15561406249999-208.1031965625-184.12400625l-5.7379471875000005-46.86940125-47.084915624999994-3.1437834374999998c-83.609593125-5.513309062499999-149.11135687499998-75.4508071875-149.11135687499998-159.218900625 0-88.1274271875 71.6958271875-159.823254375 159.823254375-159.823254375l107.0665284375 0 0-47.331219375L261.78926 192.90311062499995c-114.22527843750001 0-207.15447375000002 92.9291953125-207.15447375000002 207.15333375 0 52.88671875 19.95282 103.2066421875 56.1810215625 141.689199375 36.051455625 38.294409375 84.74646374999999 61.29522843749999 137.11663031249998 64.76855625l8.0094075 0.5313759375 0.973809375 7.968357187499999C272.64597499999996 743.7015290625 382.310088125 840.7448953124999 512.0034209375 840.7448953124999c129.691051875 0 239.3517440625-97.04336624999999 255.082065-225.72982218750002l0.973809375-7.968357187499999 8.0094075-0.5313759375c52.3701675-3.4733278125 101.0651746875-26.4752878125 137.1154903125-64.76855625 36.228200625-38.4836971875 56.1821615625-88.8024796875 56.1821615625-141.689199375 0-114.22413843749999-92.9291953125-207.15333375-207.15447375000002-207.15333375L655.1453515625 192.9042515625z"  horiz-adv-x="1024" />


    <glyph glyph-name="remove" unicode="&#58999;" d="M512-58.858c-244.188 0-442.857 198.665-442.857 442.857 0 244.188 198.668 442.857 442.857 442.857s442.857-198.668 442.857-442.857-198.669-442.857-442.857-442.857v0zM512 798.284c-228.438 0-414.284-185.847-414.284-414.284s185.845-414.29 414.284-414.29 414.284 185.851 414.284 414.29-185.847 414.284-414.284 414.284v0zM512 798.284zM512-66c-248.134 0-449.999 201.865-449.999 449.999 0 248.128 201.866 449.999 449.999 449.999s449.999-201.866 449.999-449.999-201.866-449.999-449.999-449.999v0zM512 819.713c-240.259 0-435.715-195.462-435.715-435.714s195.461-435.715 435.715-435.715 435.716 195.462 435.716 435.715-195.458 435.714-435.716 435.714v0zM512-37.428c-232.378 0-421.427 189.050-421.427 421.427s189.049 421.428 421.427 421.428 421.427-189.050 421.427-421.427c0-232.384-189.050-421.428-421.427-421.428v0zM512 791.142c-224.498 0-407.142-182.644-407.142-407.142s182.644-407.143 407.142-407.143 407.142 182.644 407.142 407.142-182.645 407.143-407.142 407.143v0zM512 791.142zM682.458 252.723l-131.272 131.272 131.269 131.267c10.822 10.822 10.822 28.367 0 39.188s-28.367 10.821-39.188-0.001l-131.269-131.267-131.275 131.275c-10.822 10.822-28.366 10.822-39.185 0.002-10.822-10.822-10.822-28.366 0-39.187l131.272-131.272-131.269-131.269c-10.819-10.818-10.814-28.366 0.007-39.187 10.818-10.819 28.367-10.822 39.185-0.005l131.269 131.269 131.272-131.272c10.822-10.822 28.366-10.822 39.187 0 10.822 10.822 10.82 28.364-0.002 39.185v0zM682.458 252.723z"  horiz-adv-x="1024" />


    <glyph glyph-name="start" unicode="&#58908;" d="M412.109 223.010c-20.744 11.28-17.609 314.090 0 324.259 17.609 10.163 280.052-144.568 280.817-162.13 0.764-17.562-260.072-173.416-280.817-162.13zM512 830.422c-247.341 0-447.855-200.514-447.855-447.855 0-247.341 200.514-447.855 447.855-447.855 247.347 0 447.855 200.514 447.855 447.855-0 247.34-200.508 447.855-447.855 447.855zM512-40.052c-233.404 0-422.619 189.214-422.619 422.619 0 233.404 189.215 422.619 422.619 422.619 233.41 0 422.619-189.215 422.619-422.619 0-233.405-189.209-422.619-422.619-422.619z"  horiz-adv-x="1024" />


    <glyph glyph-name="shenhe" unicode="&#59100;"
           d="M917.467941 4.795245l-96.153608 96.153608c21.792225 32.90569 34.628522 72.273798 34.628522 114.693038 0 114.991836-93.216599 208.208235-208.208435 208.208235-114.992835 0-208.208235-93.216599-208.208235-208.208235 0-114.986639 93.2156-208.208235 208.208235-208.208235 42.423237 0 81.786349 12.841294 114.693038 34.627323l96.153608-96.152609c11.964888-11.965887 31.545612-11.965887 43.5105 0l15.376575 15.375575C929.438025-26.750367 929.438025-7.169643 917.467941 4.795245L917.467941 4.795245zM760.170189 162.093197c-12.314651-25.806503-33.081571-46.572424-58.886875-58.887874-16.28296-7.775728-34.297546-12.490531-53.548494-12.490531-68.998019 0-124.9269 55.92988-124.9269 124.9269 0 68.992023 55.92888 124.9269 124.9269 124.9269 68.99702 0 124.927099-55.934876 124.927099-124.9269C772.661719 196.390743 767.946716 178.376157 760.170189 162.093197L760.170189 162.093197zM376.093992 176.649328l-101.836755 0c-17.447571 0-31.726489 14.279319-31.726489 31.726489 0 17.453167 14.278719 31.732485 31.726489 31.732485l100.120918 0c2.638211 29.839769 10.068574 58.299273 21.528803 84.605438l-121.644725 0c-17.452567 0-31.726489 14.278319-31.726489 31.728488 0 17.450569 14.273722 31.729487 31.726489 31.729487l160.342888 0c31.051347 38.09797 72.181461 67.652332 119.325297 84.607836L274.262234 472.779551c-17.452567 0-31.726489 14.278719-31.726489 31.728888 0 17.450169 14.273722 31.728888 31.726489 31.728888l488.423049 0c17.447171 0 31.731486-14.278719 31.731486-31.728888 0-17.450169-14.284315-31.728888-31.731486-31.728888l-23.919782 0c85.537805-30.762543 151.26804-103.003963 172.946342-192.468506L911.711843 736.221338c0 52.881546-43.268464 96.145014-96.147612 96.145014L221.37829 832.366352c-52.879548 0-96.143015-43.263467-96.143015-96.145014l0-686.482765c0-52.878948 43.263467-96.142615 96.143015-96.142615l348.506313 0C468.444179-16.873064 391.413606 69.917892 376.093992 176.649328L376.093992 176.649328zM274.262234 684.303338l488.423049 0c17.447171 0 31.731486-14.278719 31.731486-31.726489 0-17.453167-14.284315-31.728888-31.731486-31.728888L274.262234 620.847961c-17.452567 0-31.726489 14.275721-31.726489 31.728888C242.535945 670.024419 256.809667 684.303338 274.262234 684.303338L274.262234 684.303338z"
           horiz-adv-x="1024"/>


    <glyph glyph-name="shelf" unicode="&#58894;"
           d="M436.608 549.44l0-285.44c0-17.6 14.4-32 32-32l93.44 0c17.6 0 32 14.4 32 32l0 285.44 132.864 0c12.928 12.992 12.928 34.048 0 47.04L538.752 802.816c-12.928 12.992-33.984 12.992-46.912 0L303.808 596.48c-12.992-12.992-12.992-34.048 0-47.04L436.608 549.44zM849.152 570.688c-0.384-18.944-5.888-37.76-16.256-54.464 40.128-2.944 72.064-38.976 72.384-79.296l-52.544-336.128c-16.32-89.28-25.664-89.28-77.632-89.28L248.512 11.519999999999982c-51.968 0-61.312 0-77.504 88.512L118.72 432.64c0 44.352 31.68 80.384 71.616 83.584-10.304 16.64-15.744 35.456-16.128 54.4C111.04 559.616 62.592 501.76 62.848 428.288l52.8-337.536c22.4-122.56 57.728-135.296 132.864-135.296l526.656 0c75.136 0 110.464 12.8 132.992 136l52.992 341.184C961.152 502.336 912.512 559.8720000000001 849.152 570.688z"
           horiz-adv-x="1024"/>


    <glyph glyph-name="user" unicode="&#58892;"
           d="M512-66c-247.5 0-450 202.5-450 450s202.5 450 450 450 450-202.5 450-450S759.5-66 512-66zM512 800.25C281.375 800.25 95.75 614.625 95.75 384s185.625-416.25 416.25-416.25 416.25 185.625 416.25 416.25S742.625 800.25 512 800.25zM630.125 316.5C624.5 310.875 624.5 299.625 635.75 294c50.625-39.375 78.75-101.25 78.75-163.125 0-11.25 5.625-16.875 16.875-16.875 11.25 0 16.875 5.625 16.875 16.875 0 73.125-33.75 140.625-90 185.625C647 322.125 635.75 322.125 630.125 316.5L630.125 316.5 630.125 316.5M292.625 114c11.25 0 16.875 5.625 16.875 16.875 0 112.5 90 202.5 202.5 202.5 84.375 0 157.5 73.125 157.5 157.5 0 84.375-67.5 157.5-157.5 157.5S354.5 580.875 354.5 496.5c0-56.25 33.75-112.5 78.75-140.625-95.625-33.75-157.5-123.75-157.5-225C281.375 119.625 287 114 292.625 114L292.625 114 292.625 114M512 620.25c67.5 0 123.75-56.25 123.75-123.75 0-67.5-56.25-123.75-123.75-123.75-67.5 0-123.75 56.25-123.75 123.75C388.25 564 444.5 620.25 512 620.25L512 620.25 512 620.25M512 620.25"
           horiz-adv-x="1024"/>


    <glyph glyph-name="org" unicode="&#58971;" d="M644.166135 273.113517c-32.487925 27.463492-68.867484 49.051159-108.169605 64.259536 9.524934 7.100722 18.594497 14.982226 27.104311 23.63428 43.344181 44.089148 67.213821 102.669334 67.213821 164.949796 0 62.274322-23.86964 120.861672-67.213821 164.953889-43.4987 44.25083-101.366665 68.622914-162.942069 68.622914-61.60508 0-119.486348-24.372084-162.985048-68.622914-43.341111-44.088124-67.205635-102.674451-67.205635-164.953889 0-62.284555 23.86964-120.865765 67.210751-164.949796 8.504698-8.646937 17.564028-16.524348 27.088962-23.61893-39.273469-15.198144-75.632561-36.772508-108.108207-64.211441C88.892563 216.33332600000006 42.541909 137.25631599999997 25.644053 50.51781300000005c-3.712555-19.048845 8.724709-37.505195 27.774577-41.213657 19.048845-3.717671 37.505195 8.720615 41.21775 27.774577 13.846356 71.080895 51.8059 135.862317 106.891496 182.41354 27.357068 23.11137 58.049091 41.131793 91.231841 53.555753 34.305317 12.844539 70.416769 19.355837 107.336634 19.355837 36.94954 0 73.088622-6.516414 107.417475-19.370163 33.1981-12.43317 63.909565-30.466895 91.275843-53.598732 55.108109-46.579875 93.067652-111.400183 106.886379-182.524057 3.2623-16.787338 17.971303-28.444842 34.461883-28.444842 2.218528 0 4.475941 0.210801 6.741541 0.650823 19.054985 3.704368 31.497365 22.150486 27.79402 41.199331C757.812475 137.107937 711.463867 216.23304199999995 644.166135 273.113517L644.166135 273.113517zM400.157749 689.2491689999999c88.151689 0 159.871127-73.252351 159.871127-163.29204 0-90.026386-71.719438-163.267481-159.871127-163.267481-88.172155 0-159.89978 73.241095-159.89978 163.267481C240.258992 615.9968180000001 311.986617 689.2491689999999 400.157749 689.2491689999999L400.157749 689.2491689999999zM400.157749 689.2491689999999M998.653729 48.58171800000002c-5.798053 40.643676-16.33299 79.015611-31.306007 114.043383-14.82259 34.669614-34.06484 66.251913-57.195653 93.868901-33.226752 39.674605-74.707492 71.171969-121.906467 92.904946 13.271258 15.163351 25.067932 32.679283 35.036981 52.175313 19.812231 38.741349 30.725792 82.914408 30.725792 124.377752 0 62.279439-23.874757 120.866788-67.218938 164.959006-43.4987 44.25083-101.366665 68.622914-162.942069 68.622914-19.409049 0-35.142381-15.734356-35.142381-35.142381 0-19.409049 15.734356-35.142381 35.142381-35.142381 88.151689 0 159.871127-73.257467 159.871127-163.297157 0-30.547737-8.173147-63.352887-23.017226-92.373851-14.690584-28.731368-34.975583-51.734268-57.109696-64.775282-15.552208-9.165754-21.450545-28.430516-14.283308-44.534286 3.731998-10.434653 12.322653-18.943444 23.821545-22.091134 117.938086-32.279171 196.647729-128.330784 215.941144-263.527952 2.501984-17.531282 17.540492-30.18344 34.751478-30.18344 1.65264 0 3.323699 0.115634 5.007037 0.354064C988.042043 11.565661999999975 1001.398236 29.365049999999997 998.653729 48.58171800000002L998.653729 48.58171800000002zM998.653729 48.58171800000002"  horiz-adv-x="1024" />


    <glyph glyph-name="reset" unicode="&#58885;"
           d="M145.25371 509.968993c0.082888 0 0.240477 0 0.401136 0l210.590276 2.122337c22.675442 0.239454 40.86471 18.790972 40.626279 41.447994-0.240477 22.638603-17.149589 40.36636-41.429575 40.60786l-109.701494-1.103124c56.573483 97.203856 159.866011 157.51957 272.774547 157.51957 174.126806 0 315.840388-141.695163 315.840388-315.862901 0-22.655999 18.35095-41.024345 41.027415-41.024345 22.678512 0 41.028439 18.36937 41.028439 41.024345 0 219.404012-178.494277 397.919778-397.897266 397.919778-135.665843 0-260.190951-69.335135-333.192591-181.981704l-1.121544 111.325481c-0.240477 22.518876-18.590404 40.629349-41.027415 40.629349-0.159636 0-0.321318 0-0.400113 0-22.676465-0.222057-40.866756-18.772552-40.626279-41.430598 0 0 2.081405-210.479759 2.082428-210.56981C104.445282 528.375202 122.997823 509.968993 145.25371 509.968993L145.25371 509.968993zM918.73505 318.81027900000004c-0.236384 23.950482-19.157315 38.316677-41.426505 40.627303l-210.630185-2.142803c-22.673395-0.2415-40.866756-18.790972-40.624233-41.451064 0.239454-22.51683 18.590404-40.605813 41.026392-40.605813 0.160659 0 0.319272 0 0.401136 0l109.699448 1.12052c-56.57246-97.219205-159.863964-157.520593-272.7725-157.520593-174.126806 0-315.882344 141.692093-315.882344 315.862901 0 22.659069-18.349927 41.028439-41.025369 41.028439-22.678512 0-41.030485-18.371416-41.030485-41.028439 0-219.404012 178.535209-397.919778 397.938198-397.919778 135.666866 0 260.190951 69.336158 333.233524 181.984774l1.12052-111.325481c0.242524-22.518876 18.511609-40.627303 41.030485-40.627303 0.078795 0 0.2415 0 0.400113 0 22.678512 0.220011 40.868803 18.769482 40.626279 41.427528C920.818501 108.241492 918.73505 318.789813 918.73505 318.81027900000004L918.73505 318.81027900000004z"
           horiz-adv-x="1024"/>


    <glyph glyph-name="zijin" unicode="&#59016;"
           d="M640 358.4c15.36 0 25.6 10.24 25.6 25.6s-10.24 25.6-25.6 25.6l-97.28 0 112.64 135.68c10.24 10.24 10.24 28.16 0 38.4-10.24 10.24-28.16 10.24-38.4 0l-102.4-122.88c-2.56 0-2.56 0-5.12 0-2.56 0-5.12 0-5.12-2.56l-102.4 122.88c-10.24 10.24-28.16 10.24-38.4 0-10.24-10.24-10.24-28.16 0-38.4l112.64-135.68L384 407.04c-15.36 0-25.6-10.24-25.6-25.6s10.24-25.6 25.6-25.6l102.4 0 0-51.2-102.4 0c-15.36 0-25.6-10.24-25.6-25.6 0-15.36 10.24-25.6 25.6-25.6l102.4 0 0-76.8c0-15.36 10.24-25.6 25.6-25.6 15.36 0 25.6 10.24 25.6 25.6l0 76.8 102.4 0c15.36 0 25.6 10.24 25.6 25.6 0 15.36-10.24 25.6-25.6 25.6l-102.4 0 0 51.2L640 355.84zM942.08 663.04c-7.68 12.8-23.04 15.36-35.84 7.68-12.8-7.68-15.36-23.04-7.68-35.84C947.2 560.64 972.8 473.6 972.8 384c0-253.44-207.36-460.8-460.8-460.8S51.2 130.56 51.2 384 258.56 844.8 512 844.8c84.48 0 168.96-23.04 240.64-69.12 12.8-7.68 28.16-2.56 35.84 7.68C796.16 796.16 793.6 811.52 780.8 819.2 698.88 870.4 606.72 896 512 896 230.4 896 0 665.6 0 384s230.4-512 512-512 512 230.4 512 512C1024 483.84 995.84 581.12 942.08 663.04z"
           horiz-adv-x="1024"/>


    <glyph glyph-name="news" unicode="&#58932;"
           d="M922.645 47.011c0 0 0.204-71.154-68.112-71.154-34.029 0-645.772 0-681.055 0-69.299 0-68.099 71.154-68.099 71.154l-0 676.023c0 0-1.323 71.154 68.099 71.154 22.095 0 578.901 0 578.901 0s68.112 0.382 68.112-71.154 0-71.168 0-71.168h34.043c0 0 68.112 0.627 68.112-71.154 0-68.44 0-533.701 0-533.701zM786.434 705.235c0 53.355-51.078 53.369-51.078 53.369s-516.162 0-544.844 0c-51.868 0-51.077-53.369-51.077-53.369v-640.425c0 0 0.205-53.369 51.077-53.369 30.142 0 595.867 0 646.999 0 51.132 0 51.077 53.369 51.077 53.369s0 446.263 0 498.118c0 51.841-51.077 53.355-51.077 53.355h-17.021v-498.118c0 0 0.123-35.57-17.021-35.57-17.158 0-17.035 35.57-17.035 35.57s0 533.729 0 587.070zM684.429 386.481c0-9.383-17.185-19.244-17.185-19.244l-425.654-0c0 0-17.226 9.193-17.226 18.303 0 8.756 17.226 17.267 17.226 17.267h425.655c0 0 17.185-7.897 17.185-16.326zM241.589 562.927l-17.035 17.785v17.785l17.035 17.785h170.254l17.035-17.785v-17.785l-17.035-17.785h-170.254zM241.726 296.138h425.464c0 0 17.089-8.811 17.089-17.867 0-8.811-17.089-17.853-17.089-17.853h-425.464c0 0-17.171 9.438-17.171 17.853 0 9.397 17.171 17.867 17.171 17.867zM241.726 189.414h425.464c0 0 17.089-8.633 17.089-17.867 0-8.606-17.089-17.853-17.089-17.853h-425.464c0 0-17.171 8.934-17.171 17.853 0 8.961 17.171 17.867 17.171 17.867z"
           horiz-adv-x="1024"/>


    <glyph glyph-name="shouye" unicode="&#58902;"
           d="M1011.667976 433.519192 603.490198 756.234343c-35.167677 27.79798-90.246465 27.79798-125.414141 0L69.898279 433.519192c-13.963636-10.989899-16.290909-31.288889-5.30101-45.252525 10.989899-13.963636 30.771717-16.290909 44.735354-5.30101l12.670707 10.472727 0-390.076768c0-55.337374 58.311111-96.581818 109.511111-96.581818l644.137374 0c50.682828 0 83.781818 38.787879 83.781818 96.581818L959.433632 391.886869l11.765657-8.921212c5.947475-4.654545 13.187879-6.981818 20.169697-6.981818 9.438384 0 19.006061 4.137374 25.341414 12.282828C1027.829592 402.230303 1025.631612 422.529293 1011.667976 433.519192L1011.667976 433.519192M508.589188-28.832323 508.589188 149.721212c0 8.921212 16.161616 13.317172 32.193939 13.317172s32.193939-4.39596 32.193939-13.317172l0-178.553535L508.589188-28.832323 508.589188-28.832323M895.045754 3.361616c0-21.333333-5.947475-32.193939-19.264646-32.193939L638.140703-28.832323c0 0.517172-0.646465 0.905051-0.646465 1.292929L637.494238 149.721212c0 37.494949-30.254545 77.834343-96.581818 77.834343-66.456566 0-96.581818-40.339394-96.581818-77.834343l0-177.260606c0-0.517172 0.905051-0.905051 0.905051-1.292929L231.643733-28.832323c-20.169697 0-45.123232 17.454545-45.123232 32.193939L186.520501 444.379798l331.119192 261.30101c11.894949 9.438384 33.357576 9.438384 45.252525 0l332.282828-262.852525L895.175046 3.361616 895.045754 3.361616M895.045754 3.361616"
           horiz-adv-x="1024"/>


    <glyph glyph-name="forbidden" unicode="&#58927;" d="M512 832c-247.424 0-448-200.576-448-448s200.576-448 448-448 448 200.576 448 448-200.576 448-448 448zM512 704c0.126 0 0.275 0 0.424 0 65.568 0 126.508-19.815 177.159-53.784l-444.524-442.652c-33.244 49.503-53.059 110.443-53.059 176.011 0 0.149 0 0.298 0 0.447-0 176.709 143.268 319.977 320 319.977zM512 64c-0.127-0-0.277-0-0.427-0-65.566 0-126.503 19.815-177.151 53.784l444.519 442.647c33.244-49.5 53.059-110.438 53.059-176.004 0-0.15-0-0.3-0-0.45 0-176.709-143.268-319.977-320-319.977z"  horiz-adv-x="1024" />


    <glyph glyph-name="home" unicode="&#58882;"
           d="M818.251625 344.2349999999999l-301.08196875000004 322.73428125000004c-0.24074999999999996 0.24262499999999998-5.8790625 6.6508125-13.838906249999999 6.6508125-9.369 0-13.7968125-6.4072499999999994-14.036625-6.6508125L188.20925 344.2349999999999h0.5499599756556047l-24.35934375-26.19375v-356.2318248590958c0 0 27.759375-0.64453125 62.030249999999995-0.64453125h155.79419841881355c-0.14615625000000002 1.83065625-0.2360625 3.68371875-0.2360625 5.5575V204.39134638445853c0 34.28634375 25.394624999999998 62.086875 56.708625 62.086875h131.05630540823333c31.313062499999997 0 56.7133125-27.801375 56.7133125-62.086875v-237.67088379901668c0-1.8736875-0.09084375-3.72684375-0.24168749999999997-5.5575h153.70022815375341c34.274625 0 62.064 0.64453125 62.064 0.64453125V318.0412519486749l-24.35934375 26.19375H818.2516377002341zM573.22146875 803.037375c-38.8438125 38.9173125-101.86256250000001 38.9173125-140.7045 0L36.88596875000002 406.8211875c14.641875-28.54153125 40.781343750000005-50.192437500000004 72.292125-58.83496875l374.01309375 372.94265624999997c2.3385000000000002 2.32246875 4.625437499999999 4.363875 6.885281249999999 6.07275 4.49521875 4.02853125 8.8359375 5.71396875 13.155 5.55 4.3190625 0.16303125 8.65978125-1.52146875 13.1559375-5.55 2.26078125-1.708875 4.5477187500000005-3.74934375 6.88621875-6.07275l374.0720625-372.99890625c31.360875 8.529187499999999 57.41221875 29.944031250000002 72.15534375 58.21575L573.22146875 803.037375z"
           horiz-adv-x="1000"/>


    <glyph glyph-name="rotate" unicode="&#59017;" d="M888.61696 253.38879999999995c1.13664-5.01248 0.0512-11.16672-1.60256-16.19456-33.37216-152.50432-160.06656-275.29216-324.608-295.552-207.49312-26.58816-398.45888 121.56928-424.50432 330.74176s121.0112 399.56992 331.2896 426.17344c5.0176 1.14176 11.71456 1.72544 17.29024 1.75104-2.32448 21.1968-5.20704 40.71936-6.95296 58.0096-2.88768 22.30784-5.75488 39.04-5.78048 44.6208-1.69984 6.12864-1.1776 13.3888 3.27168 18.432 6.65088 8.96 18.37056 10.68544 27.32544 4.02944l0.5632-1.11616 15.68768-14.4384 110.88384-86.56896 15.68256-11.65312 13.44-9.984c4.47488-3.328 6.72256-7.78752 7.86432-12.80512 1.13664-5.01248-0.51712-10.04544-3.84-14.52544l-9.98912-13.44-11.648-15.67744-86.56384-110.88384-12.76416-16.24064-1.11616-0.5632c-7.2192-7.84896-18.92864-9.56928-27.88352-2.91328-5.04832 4.44416-8.42752 11.12576-7.34208 17.26976-1.13664 5.0176-2.88256 22.30784-5.77536 44.6208-2.304 15.616-4.61312 34.02752-6.93248 52.4288-5.58592-0.0256-11.71456-1.72544-17.29024-1.75104-169.55904-21.4016-291.09248-176.53248-269.696-346.10176 21.4016-169.56416 176.53248-291.09248 346.09664-269.696 135.53664 16.78336 240.55808 118.82496 265.66656 246.17984 3.84512 14.53056 15.51872 24.6272 30.01856 26.36288 19.52768 2.88256 38.00576-11.5456 39.20896-30.5152z"  horiz-adv-x="1024" />


    <glyph glyph-name="org1" unicode="&#58925;"
           d="M856.76 376.748c-32.985 0-62.197-16.538-79.905-41.707l-190.838 110.175c68.002 28.95 115.89 96.48 115.89 174.847 0 104.595-85.312 189.9-189.907 189.9s-189.907-85.305-189.907-189.9c0-78.367 47.887-145.897 115.89-174.847l-190.822-110.167c-17.715 25.162-46.92 41.707-79.92 41.707-53.835-0.008-97.74-43.913-97.74-97.755 0-53.812 43.905-97.71 97.74-97.71s97.74 43.898 97.74 97.71c0 13.267-2.685 25.905-7.507 37.455l207.285 119.67c11.805-3.045 24.052-4.957 36.615-5.655v-188.123c-73.492-5.483-131.79-67.020-131.79-141.878 0-78.435 63.975-142.418 142.417-142.418 78.458 0 142.433 63.983 142.433 142.418 0 74.858-58.297 136.403-131.805 141.878v188.123c16.362 0.919 31.704 3.778 46.283 8.363l197.625-122.386c-4.815-11.55-7.5-24.195-7.5-37.448 0-53.813 43.905-97.71 97.725-97.71 53.835 0 97.74 43.898 97.74 97.71 0 53.843-43.905 97.748-97.74 97.748z"
           horiz-adv-x="1024"/>


    <glyph glyph-name="tianjiahaoyou" unicode="&#59018;"
           d="M761.737 241.339c-28.851 21.378-59.866 38.732-92.449 51.895 18.491 11.671 35.822 25.476 51.663 41.316 55.812 55.813 86.55 130.02 86.55 208.95s-30.737 153.137-86.55 208.95C665.138 808.263 590.931 839 512 839s-153.137-30.737-208.95-86.55c-55.812-55.813-86.55-130.02-86.55-208.95s30.737-153.137 86.55-208.95c15.965-15.964 33.439-29.867 52.094-41.596 0.003-0.002 0.006-0.003 0.008-0.005-0.094-0.038-0.186-0.079-0.28-0.116l0.146 0c-44.473-18.02-85.873-43.708-122.259-76.344-76.33-68.464-124.826-162.017-136.555-263.427-1.967-17.008 10.226-32.39 27.233-34.356 1.21-0.14 2.411-0.208 3.6-0.208 15.527 0.001 28.929 11.645 30.756 27.441 9.987 86.357 51.312 166.05 116.363 224.396 65.545 58.791 150.183 91.169 238.322 91.169 77.133 0 150.561-24.198 212.345-69.979 13.757-10.194 33.17-7.305 43.364 6.451C778.381 211.732 775.493 231.146 761.737 241.339zM346.891 378.391C302.788 422.493 278.5 481.13 278.5 543.5s24.288 121.007 68.391 165.109S449.63 777 512 777s121.007-24.288 165.109-68.391S745.5 605.87 745.5 543.5s-24.288-121.007-68.391-165.109c-28.794-28.794-63.786-49.136-101.966-59.793-23.924-6.666-48.879-9.452-73.685-8.358-17.773 0.784-35.463 3.575-52.601 8.358-0.034 0.009-0.067 0.02-0.101 0.03l0 0C410.617 329.292 375.66 349.621 346.891 378.391zM958.833 78.917l-79.75 0 0 79.75c0 17.121-13.879 31-31 31s-31-13.879-31-31l0-79.75-79.75 0c-17.121 0-31-13.879-31-31s13.879-31 31-31l79.75 0 0-79.75c0-17.121 13.879-31 31-31s31 13.879 31 31l0 79.75 79.75 0c17.121 0 31 13.879 31 31S975.954 78.917 958.833 78.917z"
           horiz-adv-x="1024"/>


    <glyph glyph-name="spread" unicode="&#58899;"
           d="M825.245703125 354.6533203125l-333.14853515625-383.14248046875 23.146874999999998-18.60029296875c16.485644531250003-16.48740234375 43.218457031250004-16.48740234375 59.706738281250004 0l351.0755859375 401.74189453125c16.48740234375 16.48740234375 16.48740234375 43.218457031250004 0 59.710253906249996l-351.07822265625003 401.74189453125c-16.485644531250003 16.485644531250003-43.218457031250004 16.485644531250003-59.706738281250004 0l-26.17822265625-24.66298828125 336.17900390625-377.08066406250003c24.113671875-28.37548828125 22.213476562500002-33.23056640625 0.0008789062499999999-59.70849609375001zM438.843359375 354.6533203125l-333.14853515625-383.14248046875 23.146874999999998-18.60029296875c16.485644531250003-16.48740234375 43.217578124999996-16.48740234375 59.706738281250004 0l351.0791015625 401.74189453125c16.489160156249998 16.48740234375 16.489160156249998 43.218457031250004 0 59.710253906249996l-351.0791015625 401.74189453125c-16.485644531250003 16.485644531250003-43.217578124999996 16.485644531250003-59.706738281250004 0l-26.17822265625-24.66298828125 336.17812499999997-377.08066406250003c24.1119140625-28.3763671875 22.212597656249997-33.23056640625 0.0008789062499999999-59.70849609375001z"
           horiz-adv-x="1024"/>


    <glyph glyph-name="lock" unicode="&#59207;"
           d="M813.756 368.822c-10.296 10.297-22.797 15.444-37.505 15.444h-16.961v105.9c0 68.025-24.177 126.215-72.529 174.569-48.354 48.354-106.545 72.53-174.569 72.53-68.026 0-126.216-24.177-174.569-72.53-48.354-48.354-72.53-106.544-72.53-174.569v-105.899h-18.339c-14.709 0-27.211-5.147-37.507-15.444-10.296-10.295-15.444-22.797-15.444-37.506v-317.698c0-14.709 5.148-27.211 15.444-37.506s22.798-15.445 37.507-15.445h529.498c14.708 0 27.209 5.15 37.505 15.445 10.297 10.295 15.443 22.797 15.443 37.506v317.697c-0.001 14.709-5.147 27.211-15.444 37.506zM370.991 490.166c0 38.979 13.789 72.256 41.367 99.834 27.578 27.577 60.855 41.365 99.833 41.366s72.254-13.788 99.832-41.366c27.579-27.579 41.367-60.857 41.367-99.834v-105.899h-282.399v105.899z"
           horiz-adv-x="1024"/>


    <glyph glyph-name="yiwanchengdingdanicon" unicode="&#59033;"
           d="M764.400009 372.95341c20.535709 0 40.381709-2.720971 59.510372-7.354502V687.429731c0 58.285474-31.533181 98.607832-97.619318 98.607832h-87.999217c0.835018-4.663206 1.375324-9.44614 1.375324-14.257726 0.058328-36.108383-26.302039-71.618131-57.570184-71.618131H311.836703c-32.939203 0-59.272965 35.509748-59.272965 71.618131 0.029676 4.78191 0.567935 9.594519 1.435698 14.257726h-89.045035c-71.557756 0-89.134063-40.322357-89.134063-98.607832v-576.76505c0-62.561871 25.168216-97.593735 94.513584-97.593735h365.823779c-15.393595 32.609699-24.241101 68.927859-24.2411 107.394962 0 139.441842 113.045659 252.487501 252.483408 252.487502zM263.652284 567.000917h381.424082c14.07967 0 25.975605-13.032828 27.0511-28.127617 0-14.047947-14.766308-29.143761-28.873608-29.143761H260.753257c-14.137998 0-23.105231 15.095813-23.10523 29.143761 0 14.078647 11.896958 28.127617 26.004257 28.127617z m-6.634094-164.217108h381.425105c14.078647 0 25.972535-10.880815 27.110452-25.944906 0-14.078647-9.745968-31.266098-23.853268-31.266097H259.139503c-14.077623 0-28.186969 17.187451-28.186969 31.266097 0 14.018272 11.895935 25.944905 26.065656 25.944906z m178.384783-216.377073H260.753257c-14.137998 0-23.105231 15.065114-23.10523 29.142737 0 14.047947 11.896958 28.066219 26.004257 28.06622h173.57422c14.137998 0 26.033933-12.941753 27.110452-28.06622 0-14.077623-14.82566-29.142737-28.933983-29.142737z m-83.453691 559.728025h195.23659c20.566408 0 37.903262 19.219737 37.903262 43.011606 0 23.703865-17.278525 42.863227-39.037085 42.863226H351.949282c-21.640879 0-38.917358-19.159362-38.917358-42.863226 0-23.733541 17.336854-43.011606 38.917358-43.011606z m412.421051-442.049859c-101.388155 0-183.587272-82.169441-183.587272-183.557596 0-101.507882 82.139765-183.677323 183.587272-183.677322s183.6456 82.108043 183.6456 183.677322c0 101.388155-82.286098 183.557596-183.6456 183.557596z m121.174803-135.61263S753.489518 38.626995 752.77218 37.94138c-15.064091-14.826684-22.924105-12.43624-29.559222-5.67935l-79.060637 78.938864c-6.635117 6.697539-6.250354 17.935488 0.924045 25.079188 7.116071 7.233752 18.383696 7.592932 25.078165 0.836041l64.621787-64.562434 125.152394 122.131594c7.263427 7.085372 18.860557 6.935969 25.943882-0.298805 7.085372-7.293103 6.967692-18.889209-0.327458-25.914206z"
           horiz-adv-x="1024"/>


    <glyph glyph-name="deblocking" unicode="&#58886;"
           d="M776.25 383.5c14.708 0 27.21-5.146 37.505-15.443 10.296-10.297 15.443-22.799 15.443-37.507v-317.698c0-14.709-5.147-27.211-15.443-37.507-10.295-10.294-22.797-15.443-37.505-15.443H246.752c-14.709 0-27.211 5.149-37.507 15.443-10.296 10.296-15.444 22.798-15.444 37.507V330.54999999999995c0 14.708 5.148 27.21 15.444 37.507s22.798 15.443 37.507 15.443h17.65V560c0 68.026 24.177 126.216 72.529 174.569 48.354 48.354 106.543 72.53 174.569 72.53 68.025 0 126.215-24.177 174.57-72.53C734.424 686.216 758.6 628.025 758.6 560c0-9.56-3.492-17.833-10.48-24.819-6.984-6.987-15.257-10.48-24.818-10.48h-35.299c-9.562 0-17.834 3.493-24.82 10.48-6.985 6.985-10.479 15.259-10.479 24.819 0 38.977-13.79 72.254-41.367 99.833-27.578 27.58-60.856 41.367-99.833 41.367-38.979-0.001-72.255-13.79-99.834-41.367-27.577-27.577-41.365-60.854-41.365-99.833v-176.5H776.25z"
           horiz-adv-x="1024"/>


    <glyph glyph-name="scan" unicode="&#58888;"
           d="M653.2138671875-65.22832031249982a29.357226562500003 29.357226562500003 0 1 0 0 58.67138671874999h209.89335937500002c22.328613281250004 0 40.45693359375 18.664453125 40.45693359375 40.95V209.0361328125c0 16.221093749999998 13.07197265625 29.485546875 29.357226562500003 29.485546875s29.3783203125-13.264453125 29.3783203125-29.485546875v-174.64306640625003c0-54.83583984375-44.31445312500001-99.62138671874999-99.193359375-99.62138671874999h-209.8916015625z m-489.72832031250005 0c-54.8349609375 0-98.9138671875 44.80664062499999-98.9138671875 99.5783203125V209.0361328125c0 16.221093749999998 13.11328125 29.485546875 29.3783203125 29.485546875 16.286132812500004 0 29.357226562500003-13.264453125 29.357226562500003-29.485546875v-174.64306640625003c0-22.285546875 17.8716796875-40.95 40.178320312500006-40.95H338.4072265625c16.26416015625 0 29.506640625000003-13.093066406250001 29.506640625000003-29.357226562500003s-13.26357421875-29.31416015625-29.506640625000003-29.31416015625H163.485546875z m-69.4072265625 418.9921875c-14.9994140625 0-27.214453125 13.75751953125-27.214453125 29.9794921875 0 16.26416015625 12.19306640625 30.020800781249996 27.214453125 30.020800781249996h838.4150390624999c14.978320312500001 0 27.235546875-13.756640625 27.235546875-30.0216796875 0-16.2421875-12.236132812500001-29.978613281250002-27.236425781250002-29.978613281250002H94.07832031250001z m838.8219726562501 175.201171875c-16.286132812500004 0-29.357226562500003 13.2205078125-29.357226562500003 29.46357421875V733.1358398437501c0 22.264453125000003-18.12919921875 40.95-40.45693359375 40.95H653.2138671875a29.357226562500003 29.357226562500003 0 0 0-29.485546875 29.335253906250003c0 16.2650390625 13.20029296875 29.357226562500003 29.485546875 29.357226562500003h209.89335937500002c54.87890624999999 0 99.193359375-44.82861328125 99.193359375-99.62138671874999v-174.7072265625a29.443359375 29.443359375 0 0 0-29.400292968749998-29.485546875m-838.95029296875 0a29.42138671875 29.42138671875 0 0 0-29.3783203125 29.464453125000002V733.1358398437501C64.57167968749997 787.927734375 108.64970703124999 832.7572265625 163.50751953124995 832.7572265625H338.4072265625c16.26416015625 0 29.506640625000003-13.093066406250001 29.506640625000003-29.357226562500003 0-16.2421875-13.26357421875-29.3361328125-29.506640625000003-29.3361328125H163.485546875c-22.306640625 0-40.178320312500006-18.685546875000004-40.178320312500006-40.95v-174.70634765625c0-16.221972656250003-13.07109375-29.443359375-29.357226562500003-29.443359375"
           horiz-adv-x="1026"/>


    <glyph glyph-name="pack" unicode="&#58896;"
           d="M920.81796875 779.634375H103.21718750000002A41.280468750000004 41.280468750000004 0 0 1 62 738.3890624999999v-148.921875a41.280468750000004 41.280468750000004 0 0 1 41.2171875-41.2453125h35.6625v-486.61875c0-40.39453125 32.8640625-73.23750000000001 73.25859375-73.23750000000001h599.6953125000001c40.42265625 0 73.30078125 32.84296875 73.30078125 73.23750000000001V548.22890625h35.6765625c22.703906250000003 0 41.18203125 18.499218749999997 41.18203125 41.2453125v148.921875c0.007031249999999999 22.732031250000002-18.478125000000002 41.23828125000001-41.175000000000004 41.23828125000001z m-89.9296875-718.0312500000001a19.0546875 19.0546875 0 0 0-19.04765625-18.99140625h-599.6953125000001a19.033593749999998 19.033593749999998 0 0 0-19.00546875 18.99140625V548.22890625h637.7484375v-486.62578125z m76.86562500000001 540.871875h-22.61953125v0.10546874999999999h-54.253125000000004v-0.10546874999999999H193.1328125v0.10546874999999999h-54.253125000000004v-0.10546874999999999H116.25312500000001v122.90625h791.50078125v-122.90625zM342.490625 379.76015625h339.0609375a27.11953125 27.11953125 0 1 1 0 54.24609375H342.490625a27.126562500000002 27.126562500000002 0 0 1 0-54.24609375z"
           horiz-adv-x="1024"/>


    <glyph glyph-name="chuangjianqunliao" unicode="&#59007;"
           d="M537.78432 335.26784s-3.74272 1.66912-10.55744 4.13696c54.99392 37.70368 91.1872 101.72928 91.1872 174.40768 0.01024 115.9936-92.24704 210.0224-206.06464 210.0224-113.82272 0-206.08-94.02368-206.08-210.0224 0-72.33024 35.84-136.08448 90.3936-173.86496a277.79584 277.79584 0 0 1-52.1728-27.41248c0.01024 0-123.48928-78.16192-134.85056-225.65888 0 0-3.9168-30.98624 4.86912-45.92128 0 0 11.84768-16.29184 31.46752-13.568 0 0 28.2112 1.76128 30.01344 36.27008 0 0-0.77824 35.31264 12.74368 73.50272 0 0 11.92448 35.57376 34.41664 64.4096 0 0 29.12256 42.12736 82.9696 68.91008 0 0 57.91744 31.68256 128.00512 23.90528 0 0 48.95232-2.24256 99.2768-32.19968 0 0 69.1712-32.09216 103.88992-130.11968 0 0 10.63424-32.24576 11.04896-63.03232 0 0-4.63872-38.85056 33.45408-41.91744 0 0 33.47456-2.49344 33.09056 42.11712 0 0 1.75104 81.71008-49.60256 157.32224 0 0.01024-45.93664 74.36288-127.49824 108.71296zM265.1136 513.76128c0 82.86208 65.88928 150.03136 147.18976 150.03136 81.3056 0 147.18976-67.16928 147.18976-150.03136 0-82.90816-65.89952-150.08256-147.18976-150.08256S265.1136 430.848 265.1136 513.76128zM915.6608 92.47744c-0.1792 4.32128-1.38752 73.6512-40.80128 139.86304 0 0-45.19424 85.27872-135.36256 122.77248l-3.07712 1.93024s20.08064 15.51872 29.56288 27.33056c0 0 41.3696 44.37504 47.51872 106.45504 0 0 15.5904 63.85152-37.49888 143.4368 0 0-27.38688 36.352-59.2384 53.76 0 0-65.03424 38.23104-105.66144 22.24128 0 0-19.45088-9.856-15.0272-35.36384 0 0 0.90624-21.55008 53.49888-30.40256 0 0 59.53536-13.66528 87.88992-80.03072 0 0 23.54688-53.41696-4.46464-106.98752 0 0-19.4816-40.832-54.55872-57.76896 0 0-36.85888-16.10752-31.16544-57.2672 0 0 1.08032-27.65824 71.36256-51.12832 0 0 63.32928-28.288 100.1984-95.52896 0 0 28.11392-48.10752 29.16352-102.12864 0 0-4.86912-43.63776 33.95584-45.568 0.0256 0 35.73248-2.76992 33.70496 44.38528z"
           horiz-adv-x="1024"/>


    <glyph glyph-name="caigou" unicode="&#58923;"
           d="M1014.24128 448.70144c0.0768-0.60416 0.1536-1.21856 0.19456-1.83808 0.09728-1.08032 0.1536-2.16064 0.1536-3.26656 0-0.08704 0.02048-0.18432 0.02048-0.2816v-0.18432c0-24.4992-19.68128-44.35456-43.96544-44.35456h-38.95296l-94.23872-380.29312-0.13312 0.04608c-4.77696-19.29216-21.92384-33.63328-42.52672-33.63328h-498.0224v0.02048c-0.08192 0-0.1536-0.02048-0.23552-0.02048-20.59776 0-37.74976 14.34624-42.5216 33.63328l-0.13312-0.04608-94.2592 380.29312h-38.9376c-24.28416 0-43.96032 19.85536-43.96032 44.35456 0 24.48384 19.68128 44.3392 43.96032 44.3392H974.3872c20.15232-1.7152 36.39808-17.13664 39.6032-36.98688 0.09216-0.57856 0.18944-1.1776 0.25088-1.78176zM413.7728 354.43712c0 24.49408-19.68128 44.34432-43.96032 44.34432-24.27904 0-43.96032-19.84512-43.96032-44.34432v-236.50304c0-24.48896 19.68128-44.34944 43.96032-44.34944 24.28416 0 43.96032 19.86048 43.96032 44.34944v236.50304z m175.85664 0c0 24.49408-19.68128 44.34432-43.96544 44.34432s-43.96032-19.84512-43.96032-44.34432v-236.50304c0-24.48896 19.68128-44.34944 43.96032-44.34944 24.28416 0 43.96544 19.86048 43.96544 44.34944v236.50304z m175.85152 0c0 24.49408-19.68128 44.34432-43.96032 44.34432s-43.96544-19.84512-43.96544-44.34432v-236.50304c0-24.48896 19.6864-44.34944 43.96544-44.34944s43.96032 19.86048 43.96032 44.34944v236.50304z m-170.24 362.5984l0.19456 0.10752c-3.584 6.42048-5.80608 13.7216-5.80608 21.61152 0 24.49408 19.68128 44.35456 43.96032 44.35456 17.2288 0 31.97952-10.10688 39.18848-24.6528l0.1536 0.08704 119.00928-226.72384h-99.50208l-97.19808 185.216z m-99.072 0L398.96576 531.81952H299.45856l119.00928 226.72384 0.08192-0.05632c7.22944 14.53568 21.98016 24.62208 39.18848 24.62208 24.28416 0 43.96032-19.85536 43.96032-44.35456 0-7.87456-2.2016-15.16032-5.7856-21.5808l0.256-0.13824z"
           horiz-adv-x="1091"/>


    <glyph glyph-name="plus" unicode="&#58997;" d="M131.866 315.564c-0.413-0.008-0.9-0.014-1.387-0.014-37.82 0-68.478 30.659-68.478 68.478 0 37.82 30.659 68.478 68.478 68.478 0.487 0 0.975-0.006 1.46-0.015l312.929 0.001v313.029c0.007 37.813 30.663 68.464 68.478 68.464 37.82 0 68.478-30.659 68.478-68.478 0-0.006 0-0.009 0-0.015v-313.028h313c37.811 0 68.464-30.652 68.464-68.464s-30.653-68.464-68.464-68.464h-313v-313.001c0-37.82-30.659-68.478-68.478-68.478s-68.478 30.659-68.478 68.478v313.001l-313.001 0.028z"  horiz-adv-x="1025" />


    <glyph glyph-name="yunxiangmugongdanweixintubiao-" unicode="&#58903;"
           d="M567.963 322.494c100.063 49.325 169.063 151.883 169.063 270.049 0 166.259-136.269 301.472-303.745 301.472s-303.746-135.212-303.746-301.472c0-118.224 68.974-220.895 169.182-270.251-173.226-56.357-298.717-218.313-298.717-408.792 0-19.513 15.951-35.497 35.8-35.497 19.707 0 35.772 15.784 35.772 35.497 0 198.083 162.304 359.15 361.825 359.15 79.664 0 155.253-25.283 218.506-72.916 15.544-11.878 37.968-8.866 49.9 6.858 11.962 15.524 8.902 37.791-6.878 49.672-38.979 29.212-81.686 51.508-126.962 66.23zM433.282 361.948c-128.092 0-232.317 103.502-232.317 230.595 0 127.092 104.225 230.538 232.317 230.538 128.063 0 232.289-103.446 232.289-230.538-0.001-127.092-104.226-230.595-232.289-230.595zM552.2 140.938c0-19.571 15.95-35.668 35.801-35.668h400.196c19.708 0 35.803 15.984 35.803 35.668 0 19.6-15.951 35.668-35.803 35.668h-400.341c-19.706 0-35.656-15.983-35.656-35.668zM988.053 60.909h-400.197c-19.706 0-35.801-15.984-35.801-35.67 0-19.684 15.95-35.639 35.801-35.639h400.196c19.706 0 35.803 15.955 35.803 35.639 0 19.685-16.096 35.67-35.802 35.67zM988.053-54.62h-400.197c-19.706 0-35.801-16.011-35.801-35.754 0-19.482 15.95-35.611 35.801-35.611h400.196c19.706 0 35.803 15.956 35.803 35.611-0.146 19.743-16.096 35.754-35.802 35.754z"
           horiz-adv-x="1024"/>


    <glyph glyph-name="shouye1" unicode="&#58904;"
           d="M967.221732 319.931713c62.975793 0 94.737944 75.262542 51.261949 120.83414L616.41044 857.981955c-48.61952 50.690727-130.096524 50.690727-178.716044 0L34.646123 440.765853c-43.548344-45.048328-11.761797-120.834141 51.213997-120.83414h46.09571c5.642398 0 10.261812-4.595017 10.261812-10.238257v-335.310891c0-56.310411 46.047757-102.380882 102.405279-102.380882h134.667144c28.190959 0 51.214838 23.023037 51.214838 51.190441V245.716552c0 5.619684 4.618573 10.238256 10.238256 10.238256h171.571978c5.618843 0 10.238256-4.618573 10.238257-10.238256v-322.52527c0-28.166562 23.071831-51.190441 51.214838-51.190441h134.73781c56.310411 0 102.40612 46.071313 102.406121 102.380882V309.693456c0 5.643239 4.571461 10.238256 10.238256 10.238257h46.071313z m-101.071866 9.7377v-366.763454c0-29.904626-24.452355-54.356982-54.30987-54.356982h-129.286381c-6.072287 0-10.928939 4.881049-10.928939 10.880987V261.741063c0 29.833118-24.4288 54.30987-54.309871 54.309871h-181.71433c-29.928182 0-54.356982-24.476752-54.356981-54.309871v-342.311099c0-5.999938-4.904604-10.880987-10.857431-10.880987h-129.286381c-29.904626 0-54.356982 24.405244-54.356982 54.356982V329.669413c0 29.857515-24.476752 54.310712-54.356981 54.310712h-66.286191c-9.786494 0-14.691099 11.405098-7.642938 18.475973L480.743026 839.839125c25.072371 26.118911 66.88181 26.118911 91.905387 0l422.359627-437.383027c6.524049-7.070875 1.618604-18.475973-7.594986-18.475973h-66.357698c-30.381626 0-54.90549-24.453196-54.90549-54.310712z"
           horiz-adv-x="1217"/>


    <glyph glyph-name="xiaoshou" unicode="&#59010;"
           d="M435.405 500.096c-9.549-4.582-17.51-11.264-23.783-20.07-6.297-8.807-10.444-19.482-12.441-32.026-1.997-12.57 0.102-23.987 6.297-34.253 5.274-9.165 13.568-16.46 24.884-21.862 11.29-5.427 24.806-9.6 40.473-12.519l21.325-4.121V512.46c-13.133-0.717-23.475-1.818-31.027-3.303-7.578-1.459-16.154-4.48-25.728-9.062zM962.79 431.36L524.262 802.765c-7.116 6.041-17.536 6.067-24.704 0.102L53.965 431.462c-7.527-6.272-9.088-17.177-3.712-25.344l85.965-129.817c2.892-4.403 7.5-7.399 12.697-8.32 5.171-0.87 10.522 0.358 14.746 3.507l37.58 27.93 72.551-328.91a19.195 19.195 0 0 1 18.74-15.052h440.294c9.088 0 16.947 6.4 18.79 15.283l68.3 328.55 42.01-23.833c8.91-5.069 20.224-2.202 25.703 6.426l78.95 124.544a19.12 19.12 0 0 1-3.789 24.934zM674.944 247.091c-1.382-15.949-6.349-30.899-14.9-44.825-8.575-13.927-21.145-26.266-37.76-36.967-16.562-10.752-32.076-17.024-46.463-18.841l-39.936-6.887v-12.928c0-4.787-1.28-9.113-3.763-13.056-2.535-3.942-7.885-6.349-16-7.142-8.116-0.845-14.157 0.998-18.1 5.504-3.916 4.48-5.862 8.832-5.862 13.056v15.949c-15.334 3.302-28.902 6.758-40.755 10.29-11.853 3.61-24.704 9.268-38.554 17.05-13.85 7.808-25.293 16.333-34.33 25.6-9.036 9.242-16.947 19.61-23.782 31.053-6.86 11.469-10.24 22.528-10.24 33.152s3.559 18.15 10.65 22.554c7.117 4.403 13.184 4.121 18.201-0.82 4.992-4.94 9.319-12.518 12.98-22.681 3.66-10.189 10.035-19.635 19.148-28.34 9.088-8.703 19.328-16.409 30.618-23.09 11.29-6.682 20.122-10.752 26.522-12.237l29.516-8.525V333.747c-16.23 2.586-29.85 5.171-40.883 7.834-11.033 2.662-23.424 6.86-37.197 12.518-13.747 5.683-25.42 12.826-34.995 21.453s-16.41 19.43-20.505 32.46-5.146 27.393-3.15 43.188c2.382 20.89 11.086 41.702 26.138 62.413 15.028 20.736 43.316 33.1 84.89 37.12l25.702 3.02c-0.537 4.788-0.512 9.114 0.154 13.082 0.64 3.917 3.226 7.731 7.706 11.392 4.505 3.687 11.724 4.506 21.734 2.483s14.72-8.064 14.182-18.15v-7.142c14.567-2.74 27.239-5.684 37.99-8.807 10.778-3.123 22.324-8.806 34.714-17.05s22.093-17.382 29.133-27.366c7.015-9.984 13.85-21.35 20.531-34.099 6.656-12.723 9.37-22.912 8.192-30.49-1.203-7.628-4.864-13.312-11.084-17.05-6.196-3.762-12.544-3.737-18.996 0.129-6.476 3.84-11.545 9.625-15.18 17.331l-12.596 28.595c-5.836 10.624-13.926 19.943-24.32 27.904-10.393 8.013-19.865 12.519-28.441 13.62l-19.943 3.02v-140.262c24.807-3.123 43.93-6.323 57.421-9.626 13.466-3.302 25.421-8.064 35.815-14.31 10.368-6.221 19.046-13.927 25.984-23.091s12.288-20.25 16.128-33.28 5.043-27.546 3.686-43.495zM609.46 312.96c-8.577 7.245-23.143 11.802-43.751 13.62l-29.799 2.738v-147.123c10.573 0.717 20.608 1.971 30.08 3.712 9.472 1.741 19.456 5.837 29.952 12.263 10.47 6.425 18.51 14.412 24.039 23.936 5.58 9.523 8.806 19.916 9.728 31.232 0.896 11.238-0.103 22.22-3.021 32.844-2.918 10.599-8.653 19.533-17.229 26.778z"
           horiz-adv-x="1024"/>


    <glyph glyph-name="vaccine" unicode="&#58880;"
           d="M408.0000003125 181.9999996875l-80.000000625 80.000000625c-6 6-6 13.999999687499999 0 19.9999996875l268.0000003125 268.0000003125c6 6 13.999999687499999 6 19.9999996875 0l80.000000625-80.000000625c6-6 6-13.999999687499999 0-19.9999996875L428 181.9999996875c-6-6-13.999999687499999-6-19.9999996875 0zM417.9999996875 157.9999996874999c-7.999999687500001 0-18 4.0000003125-24 10.000000312500001l-79.9999996875 79.9999996875c-6 6-10.000000312500001 16.0000003125-10.000000312500001 24 0 10.000000312500001 4.0000003125 18 10.000000312500001 24L582.0000003125 564c13.999999687499999 13.999999687499999 36 13.999999687499999 48 0l79.9999996875-79.9999996875c13.999999687499999-13.999999687499999 13.999999687499999-36 0-48L441.9999996875 168c-6-6-13.999999687499999-10.000000312500001-24-10.000000312500001z m4.0000003125 38.000000625000006z m-76.00000031249999 75.999999375l72-72 260.000000625 260.000000625-72 72-260.000000625-260.000000625zM357.9999996875 186L332 211.9999996875c-6 6-6 16.0000003125 0 24 6 6 16.0000003125 6 24 0l25.999999687499997-25.999999687499997c6-6 6-16.0000003125 0-24-7.999999687500001-6-18-6-24 0zM369.9999996875 162c-10.000000312500001 0-18 4.0000003125-25.999999687499997 10.000000312500001l-25.999999687499997 25.999999687499997c-6 6-10.000000312500001 16.0000003125-10.000000312500001 25.999999687499997s4.0000003125 18 10.000000312500001 26.000000625c13.999999687499999 13.999999687499999 37.9999996875 13.999999687499999 51.999999374999994 0l26.000000625-26.000000625c6-6 10.000000312500001-16.0000003125 9.999999375-25.999999687499997s-4.0000003125-18-9.999999375-25.999999687499997c-7.999999687500001-6-18-10.000000312500001-26.000000625-10.000000312500001zM255.9999996875 90c-6 0-10.000000312500001 1.9999996875-13.999999687499999 6-7.999999687500001 7.999999687500001-7.999999687500001 19.9999996875 0 28.0000003125l85.99999968750001 85.99999968750001c7.999999687500001 7.999999687500001 19.9999996875 7.999999687500001 28.0000003125 0s7.999999687500001-19.9999996875 0-28.0000003125l-85.99999968750001-85.99999968750001c-4.0000003125-4.0000003125-10.000000312500001-6-14.000000625-6zM578 319.9999996875c-6 0-10.000000312500001 1.9999996875-13.999999687499999 6L525.9999996874999 364.0000003125c-7.999999687500001 7.999999687500001-7.999999687500001 19.9999996875 0 27.999999374999998s19.9999996875 7.999999687500001 28.0000003125 0l37.9999996875-37.9999996875c7.999999687500001-7.999999687500001 7.999999687500001-19.9999996875 0-28.0000003125-4.0000003125-4.0000003125-7.999999687500001-6-13.999999687499999-6zM507.9999996875 256.0000003125c-6 0-10.000000312500001 1.9999996875-13.999999687499999 6l-58.0000003125 57.999999375c-7.999999687500001 7.999999687500001-7.999999687500001 19.9999996875 0 28.0000003125s19.9999996875 7.999999687500001 28.0000003125 0l58.0000003125-58.0000003125c7.999999687500001-7.999999687500001 7.999999687500001-19.9999996875 0-27.999999374999998-4.0000003125-4.0000003125-7.999999687500001-6-14.000000625-6zM638 378c-6 0-10.000000312500001 1.9999996875-13.999999687499999 6l-48 48c-7.999999687500001 7.999999687500001-7.999999687500001 19.9999996875 0 28.0000003125s19.9999996875 7.999999687500001 27.999999374999998 0l48-48c7.999999687500001-7.999999687500001 7.999999687500001-19.9999996875 0-28.0000003125-4.0000003125-4.0000003125-7.999999687500001-6-13.999999687499999-6zM644 517.9999996875c-6 0-10.000000312500001 1.9999996875-13.999999687499999 6-7.999999687500001 7.999999687500001-7.999999687500001 19.9999996875 0 28.0000003125l54 54c7.999999687500001 7.999999687500001 19.9999996875 7.999999687500001 27.999999374999998 0s7.999999687500001-19.9999996875 0-28.0000003125L657.9999996875 523.9999996875c-4.0000003125-4.0000003125-10.000000312500001-6-13.999999687499999-6zM692 480c-6 0-10.000000312500001 1.9999996875-13.999999687499999 6-7.999999687500001 7.999999687500001-7.999999687500001 19.9999996875 0 28.0000003125l49.9999996875 49.9999996875c7.999999687500001 7.999999687500001 19.9999996875 7.999999687500001 28.0000003125 0s7.999999687500001-19.9999996875 0-28.0000003125l-50.000000625-49.9999996875c-4.0000003125-4.0000003125-7.999999687500001-6-13.999999687499999-6zM768.0000003125001 505.9999996875c-6 0-10.000000312500001 1.9999996875-14.000000625 6L663.9999996875 604.0000003125c-7.999999687500001 7.999999687500001-7.999999687500001 19.9999996875 0 27.999999374999998s19.9999996875 7.999999687500001 28.0000003125 0l91.9999996875-91.9999996875c7.999999687500001-7.999999687500001 7.999999687500001-19.9999996875 0-28.0000003125-4.0000003125-4.0000003125-10.000000312500001-6-15.999999375000002-6zM891.9999996875-37.99999968750001H132.0000003125c-34.0000003125 0-60 25.999999687499997-60 60V745.9999996875c0 34.0000003125 25.999999687499997 60 60 60h759.999999375c34.0000003125 0 60-25.999999687499997 60-60v-726c0-31.9999996875-25.999999687499997-58.0000003125-60-57.999999375zM132.0000003125 766.0000003125001c-12 0-19.9999996875-7.999999687500001-20.000000625000002-20.000000625000002v-726c0-12 7.999999687500001-19.9999996875 20.000000625000002-19.9999996875h759.999999375c12 0 19.9999996875 7.999999687500001 20.000000625000002 19.9999996875V745.9999996875c0 12-7.999999687500001 19.9999996875-20.000000625000002 20.000000625000002H132.0000003125zM528.0000003125001 625.9999996875h-340.0000003125c-12 0-19.9999996875 7.999999687500001-19.9999996875 20.000000625000002s7.999999687500001 19.9999996875 19.9999996875 19.9999996875h340.0000003125c12 0 19.9999996875-7.999999687500001 19.9999996875-19.9999996875s-10.000000312500001-19.9999996875-19.9999996875-20.000000625000002zM402.0000003125 427.9999996875H188c-12 0-19.9999996875 7.999999687500001-19.9999996875 20.000000625000002s7.999999687500001 19.9999996875 19.9999996875 19.9999996875h216c12 0 19.9999996875-7.999999687500001 19.9999996875-19.9999996875s-10.000000312500001-19.9999996875-21.999999375-20.000000625000002zM330.0000003125 258H188c-12 0-19.9999996875 7.999999687500001-19.9999996875 19.9999996875s7.999999687500001 19.9999996875 19.9999996875 20.000000625000002h142.0000003125c12 0 19.9999996875-7.999999687500001 19.9999996875-20.000000625000002s-10.000000312500001-19.9999996875-19.9999996875-19.9999996875zM828.0000003125001 258h-300c-12 0-19.9999996875 7.999999687500001-20.000000625000002 19.9999996875s7.999999687500001 19.9999996875 20.000000625000002 20.000000625000002h300c12 0 19.9999996875-7.999999687500001 19.9999996875-20.000000625000002s-10.000000312500001-19.9999996875-19.9999996875-19.9999996875z"
           horiz-adv-x="1024"/>


    <glyph glyph-name="daili" unicode="&#59068;"
           d="M968.704 616.448c-4.266667 14.506667-17.749333 24.576-33.109333 24.576-18.944 0-34.304-15.36-34.304-34.304 0-5.632 1.194667-10.752 3.754666-15.36 33.450667-63.488 51.2-135.168 51.2-207.36 0-245.077333-199.338667-444.416-444.245333-444.416-245.077333 0-444.416 199.338667-444.416 444.416C67.584 628.906667 266.922667 828.245333 512 828.245333c97.962667 0 190.976-31.232 268.970667-90.624 4.096-3.754667 6.144-5.461333 8.362666-6.826666 6.826667-3.754667 12.288-5.12 17.92-5.12 18.944 0 34.474667 15.36 34.474667 34.304 0 12.288-6.485333 23.381333-17.237333 29.696C732.672 859.648 625.322667 896 512 896 229.717333 896 0 666.282667 0 384s229.717333-512 512-512 512 229.717333 512 512c0 80.554667-18.090667 157.525333-53.930667 229.034667l-1.365333 3.413333z m-599.722667-18.773333c-28.16-80.896-74.922667-149.504-117.76-206.506667 3.925333-18.944 5.973333-38.912 7.850667-58.026667 0.512-4.949333 1.024-9.898667 1.536-14.677333 10.410667 13.312 20.992 27.648 32.938667 44.885333l17.578666 25.258667v-260.096l51.029334-1.194667v337.92l8.192 16.725334c15.701333 31.914667 36.693333 74.410667 48.810666 106.666666l-50.176 9.045334z m302.250667-90.282667c5.461333 5.12 11.776 10.581333 18.261333 16.213333 6.314667 5.632 13.141333 11.434667 19.797334 17.578667-25.088 22.186667-51.882667 44.032-75.605334 61.44L602.794667 568.32c22.357333-17.066667 45.397333-37.546667 68.437333-60.928zM747.349333 254.293333c-16.213333 7.168-34.304 15.189333-50.176 24.234667-1.706667-7.168-3.754667-14.336-5.802666-21.333333-1.877333-6.485333-3.754667-12.970667-5.290667-19.456-5.802667-25.429333-9.216-32.426667-11.776-35.84-5.632-7.68-11.946667-9.216-16.384-9.216-14.336 0-29.184 15.530667-48.128 50.346666-15.701333 29.013333-28.842667 66.389333-41.984 154.282667l-1.536 9.898667 169.301333 20.309333-12.117333 49.664-164.010667-19.797333-0.853333 9.898666c-3.584 41.130667-5.632 85.333333-5.973333 131.584H496.64c1.536-49.152 4.266667-95.573333 8.021333-137.898666l0.853334-9.216-97.621334-13.482667 15.872-49.664 84.48 12.8 1.194667-9.898667c20.650667-170.837333 74.069333-261.12 154.282667-261.12 23.210667 0 41.984 10.581333 51.541333 29.013334 11.093333 21.674667 24.917333 57.173333 32.085333 94.890666z"
           horiz-adv-x="1024"/>


    <glyph glyph-name="warehouse" unicode="&#58889;"
           d="M860.127 473.578c5.62-2.811 11.242-5.62 16.862-5.62 8.431 0 16.862 2.811 22.482 11.242 8.431 11.242 8.431 30.914-5.62 39.344l-393.443 309.133c-11.242 8.431-25.293 8.431-33.724 0l-393.442-309.133c-11.242-8.431-14.052-28.103-5.62-39.344s28.103-14.052 39.344-5.62l376.581 295.082 376.581-295.082zM933.194 327.442h-112.412v112.412c0 16.862-11.242 28.103-28.103 28.103s-28.103-11.242-28.103-28.103v-112.412h-196.721c-16.862 0-28.103-11.242-28.103-28.103v-224.825h-337.237v365.339c0 16.862-11.242 28.103-28.103 28.103s-28.103-11.242-28.103-28.103v-393.442c0-16.862 11.242-28.103 28.103-28.103h365.339v-56.206c0-16.862 11.242-28.103 28.103-28.103h365.339c16.862 0 28.103 11.242 28.103 28.103v337.237c0 16.862-11.242 28.103-28.103 28.103zM905.092-9.793999999999983h-309.133v56.206h309.133v-56.206zM905.092 102.61800000000005h-309.133v56.206h309.133v-56.206zM905.092 215.03099999999995h-309.133v56.206h309.133v-56.206z"
           horiz-adv-x="1024"/>


    <glyph glyph-name="qingchuhuancun" unicode="&#58920;"
           d="M433.8176 217.2416l-81.2032-182.3744c-6.2464-14.0288-1.0752-27.5456 12.9536-33.792 14.0288-6.2976 27.5456-1.0752 33.792 12.9536l81.2032 182.4256c6.2464 14.0288 1.0752 27.5456-12.9536 33.792s-27.5456 1.024-33.792-13.0048zM284.16 283.904l-81.2544-182.4256c-6.2464-14.0288-1.024-27.5456 13.0048-33.792s27.5456-1.024 33.792 12.9536l81.2032 182.4256c6.2464 14.0288 1.024 27.5456-12.9536 33.792-9.3696 4.1984-27.5968 1.0752-33.792-12.9536zM578.816 152.7296L497.6128-29.696c-6.2464-14.0288-1.0752-27.5456 12.9536-33.792s27.5456-1.0752 33.792 12.9536l81.2032 182.4256c6.2464 14.0288 1.0752 27.5456-12.9536 33.792-9.3696 4.1472-27.5456 1.024-33.792-12.9536zM971.52 493.4656c37.376-16.64 55.6032-64 38.912-101.376l-41.6256-93.5424c-16.6912-37.4272-64-55.6032-101.376-38.912L221.8496 546.9184c-37.376 16.6912-55.552 64-38.912 101.376l41.6768 93.5936c16.64 37.376 64 55.6032 101.376 38.912l210.4832-93.696 66.6624 149.6576c16.64 37.4272 64 55.6032 101.376 38.912l93.5424-41.6256c37.4272-16.64 55.6032-64 38.912-101.376l-66.6112-149.7088 201.1136-89.5488z m-185.9584 262.144c6.2464 14.0288 1.0752 27.5456-12.9536 33.792l-93.5424 41.6768c-9.3696 4.096-22.8864-1.024-29.1328-15.104l-87.4496-196.4032L305.152 734.1056c-14.0288 6.2464-27.5456 1.024-33.792-13.0048l-41.6256-93.5424c-6.2464-14.0288-1.024-27.5456 12.9536-33.792l645.4784-287.3856c14.0288-6.2464 27.5456-1.024 33.792 12.9536l41.6768 93.5936c6.2464 14.0288 1.024 27.5456-13.0048 33.792L698.112 559.104l87.4496 196.4544zM106.8544 250.7264c-16.6912-37.376 1.536-84.736 38.912-101.376l477.0816-212.4288c37.376-16.64 84.736 1.536 101.376 38.912l129.1264 290.048L235.9296 540.672l-129.0752-289.9968z m814.08 41.0624l-149.9136-336.7424a126.7712 126.7712 0 0 0-168.96-64.8704L124.928 102.5536a126.7712 126.7712 0 0 0-64.8704 169.0112l149.9648 336.7936 710.9632-316.5696z"
           horiz-adv-x="1024"/>


    <glyph glyph-name="wave" unicode="&#59205;" d="M694.446 778.528h-366.05s-45.78 0-45.78-67.533h457.612c0 67.533-45.781 67.533-45.781 67.533zM831.75 619.059c0 45.969-45.734 45.969-45.734 45.969h-549.143s-45.734 0-45.734-45.969v-45.968h640.612v45.968zM923.227 541.0899999999999l-27.027 27.213v-73.181h-769.513v73.181l-27.073-27.213c-27.078-27.213-46.477-34.477-35.581-91.936 10.846-57.277 63.391-371.238 71.206-413.713 8.547-46.617 55.943-45.969 55.943-45.969h640.611s47.353-0.647 55.942 45.969c7.821 42.475 60.317 356.436 71.206 413.713 10.806 57.459-8.591 64.724-35.716 91.936zM773.393 255.71500000000003c0-36.277-29.405-65.681-65.679-65.681h-392.541c-36.272 0-65.678 29.404-65.678 65.681v130.781h65.487v-130.974h392.924v130.974h65.487v-130.781z"  horiz-adv-x="1024" />


    <glyph glyph-name="xiaoshouxiansuo" unicode="&#58905;"
           d="M809.993391 895.998688H31.617012A31.331763 31.331763 0 0 1 0 864.929354V-95.527241a31.400223 31.400223 0 0 1 31.617012-31.194843h544.027115a417.330867 417.330867 0 0 0-190.078601 349.144918 412.093693 412.093693 0 0 0 33.088897 162.158418H167.80635a7.028538 7.028538 0 0 0-7.005718 6.982898v81.398688a6.845979 6.845979 0 0 0 6.937258 6.845979h277.912509a6.845979 6.845979 0 0 0 6.994309-6.731879v-24.462964a425.876931 425.876931 0 0 0 132.663659 129.252079H167.80635a7.062768 7.062768 0 0 0-4.963334 2.008154 6.845979 6.845979 0 0 0-2.053794 4.883465v81.341638a6.845979 6.845979 0 0 0 2.053794 4.883465 7.085588 7.085588 0 0 0 4.963334 2.008154h505.050676a6.914439 6.914439 0 0 0 4.963334-2.008154 6.766109 6.766109 0 0 0 2.030974-4.883465v-44.715651a430.155667 430.155667 0 0 0 132.35559 20.537936c9.869619 0 19.579499-0.330889 29.277969-0.924207V864.883714A31.308943 31.308943 0 0 1 810.039031 895.998688zM167.80635 287.299893h149.059778a6.982898 6.982898 0 0 0 7.062769-6.845978v-81.341638a6.960078 6.960078 0 0 0-7.017129-6.845979H167.80635a7.085588 7.085588 0 0 0-4.963334 2.008154 6.845979 6.845979 0 0 0-2.053794 4.883465V280.431095a6.845979 6.845979 0 0 0 2.053794 4.906285 7.085588 7.085588 0 0 0 4.963334 2.008153z m644.480444 285.625646c-193.53582-3.422989-347.695853-163.025575-344.307094-356.561396s163.025575-347.695853 356.561396-344.307093c191.162548 3.34312 344.375553 159.271697 344.364143 350.468474-1.700085 195.213085-161.32549 352.100099-356.538576 350.400015z m141.574841-330.626546v-45.33179h-112.650581v-62.423916h112.650581v-45.947928h-112.650581v-90.857549h-57.905571V88.629589H666.650005v45.947928h116.655478v62.412506H666.650005v45.30897h97.247129l-107.401998 193.467361h65.287818c5.704982-10.371658 88.233257-177.345081 89.419893-179.900913l95.102055 179.900913h61.716499L857.185005 242.207713h96.65381z"
           horiz-adv-x="1168"/>


    <glyph glyph-name="firm" unicode="&#58928;"
           d="M727.552 245.76h-54.272c-6.656 0-12.288-2.56-15.872-6.656-4.608-4.608-6.656-10.24-6.656-16.896 0-12.8 10.24-23.04 23.04-23.04h54.272c6.144 0 12.288 2.56 16.896 6.656 4.608 4.608 6.656 10.24 6.656 16.384 0 6.144-2.56 12.288-7.168 16.896-5.12 4.608-10.752 6.656-16.896 6.656zM672.768 361.472h54.784c6.656 0 12.288 2.56 15.872 6.656 4.608 4.608 6.656 9.728 6.656 15.872 0 2.56-0.512 5.12-1.024 7.168-1.024 3.584-3.072 7.168-6.144 9.728l-1.536 1.536c-3.072 3.584-8.192 5.12-14.336 5.12h-54.272c-6.144 0-12.288-2.56-16.896-6.656-4.608-4.608-6.656-9.728-6.656-15.872 0-6.144 2.56-12.288 6.656-16.896 5.632-4.608 10.752-6.656 16.896-6.656zM905.216 77.31200000000001c-4.608 4.608-9.728 6.656-15.872 6.656h-30.72V465.92c0 57.344-46.592 103.936-103.936 103.936h-165.376V627.712c0 57.344-46.592 103.936-103.936 103.936H268.8c-57.344 0-103.936-46.592-103.936-103.936v-543.232h-31.232c-6.656 0-12.288-2.56-15.872-6.656-4.608-4.608-6.656-9.728-6.656-15.872 0-13.312 10.24-23.552 23.04-23.552h755.2c6.144 0 12.288 2.56 16.896 6.656 4.608 4.608 6.656 10.24 6.656 16.896-0.512 6.144-3.072 11.264-7.68 15.36z m-92.672 387.584v-380.928H588.8V523.264h165.376c32.256 0 58.368-26.112 58.368-58.368zM210.944 627.712c0 31.744 26.112 57.856 57.856 57.856h216.064c31.744 0 57.856-26.112 57.856-57.856v-543.232H210.944V627.712zM457.728 407.552H295.936c-6.656 0-12.288-2.56-16.384-7.168-3.072-3.584-6.656-8.704-6.656-16.384 0-12.8 10.24-23.04 23.04-23.04h161.792c6.144 0 12.288 2.56 16.896 6.656 4.608 4.608 6.656 9.728 6.656 15.872 0 7.168-2.56 12.8-7.168 16.896-4.608 5.12-10.24 7.168-16.384 7.168zM295.936 523.264h161.792c12.8 0 23.04 10.24 23.04 23.04v0.512 0.512c0 12.8-10.24 23.04-23.04 23.04H295.936c-12.8 0-23.04-10.24-23.04-23.04v-1.024c0-13.312 10.24-23.04 23.04-23.04zM460.8 245.76H295.936c-6.656 0-12.288-2.56-15.872-6.656-4.608-4.608-6.656-9.728-6.656-15.872 0-12.8 10.24-23.04 23.04-23.04h161.792c6.144 0 12.288 2.56 16.896 6.656 4.608 4.608 6.656 10.24 6.656 16.896 0 6.144-2.56 12.288-7.168 16.896-4.608 3.072-9.728 4.608-13.824 5.12z"
           horiz-adv-x="1024"/>


    </font>
</defs>
</svg>
